<svg width="796" height="778" viewBox="0 0 796 778" fill="none" xmlns="http://www.w3.org/2000/svg">
<g opacity="0.1" filter="url(#filter0_f_345_4334)">
<path fill-rule="evenodd" clip-rule="evenodd" d="M994.528 631.129L995.32 635.384L996.117 639.661L996.916 643.963L997.716 648.29L998.515 652.644L999.307 657.027L1000.09 661.439L1000.86 665.881L1001.62 670.354L1002.36 674.858L1003.07 679.394L1003.75 683.962L1004.4 688.562L1005.01 693.193L1005.58 697.854L1006.1 702.544L1006.57 707.264L1006.98 712.01L1007.33 716.781L1007.61 721.576L1007.82 726.392L1007.95 731.227L1008 736.078L1007.96 740.943L1007.84 745.818L1007.62 750.701L1007.31 755.589L1006.89 760.478L1006.37 765.364L1005.75 770.244L1005.01 775.114L1004.17 779.972L1003.21 784.812L1002.14 789.633L1000.95 794.429L999.647 799.198L998.23 803.936L996.697 808.64L995.049 813.308L993.288 817.935L991.414 822.52L989.429 827.06L987.336 831.552L985.137 835.996L982.834 840.389L980.43 844.73L977.928 849.017L975.332 853.249L972.643 857.426L969.867 861.547L967.005 865.611L964.062 869.619L961.041 873.571L957.945 877.466L954.779 881.306L951.546 885.092L948.249 888.824L944.892 892.503L941.478 896.132L938.011 899.711L934.494 903.242L930.93 906.727L927.322 910.168L923.672 913.568L919.984 916.927L916.26 920.249L912.501 923.536L908.711 926.789L904.891 930.011L901.042 933.205L897.166 936.373L893.264 939.515L889.337 942.636L885.386 945.736L881.412 948.818L877.414 951.882L873.393 954.931L869.349 957.966L865.281 960.987L861.19 963.996L857.073 966.993L852.93 969.979L848.761 972.952L844.563 975.911L840.336 978.857L836.077 981.786L831.785 984.698L827.459 987.59L823.097 990.459L818.696 993.302L814.256 996.116L809.776 998.898L805.252 1001.64L800.685 1004.35L796.073 1007.01L791.416 1009.61L786.712 1012.17L781.96 1014.66L777.161 1017.09L772.314 1019.45L767.42 1021.74L762.479 1023.95L757.49 1026.07L752.456 1028.1L747.378 1030.03L742.256 1031.87L737.092 1033.6L731.888 1035.22L726.647 1036.73L721.37 1038.13L716.061 1039.4L710.721 1040.55L705.353 1041.57L699.962 1042.46L694.549 1043.22L689.118 1043.85L683.673 1044.34L678.217 1044.7L672.754 1044.92L667.286 1045L661.818 1044.95L656.353 1044.76L650.895 1044.44L645.446 1043.98L640.009 1043.4L634.589 1042.68L629.188 1041.84L623.809 1040.88L618.454 1039.8L613.126 1038.6L607.827 1037.28L602.56 1035.86L597.326 1034.33L592.128 1032.7L586.967 1030.96L581.843 1029.14L576.759 1027.22L571.716 1025.22L566.713 1023.13L561.752 1020.97L556.833 1018.73L551.956 1016.43L547.12 1014.06L542.327 1011.63L537.575 1009.14L532.863 1006.6L528.192 1004.01L523.559 1001.37L518.965 998.696L514.408 995.978L509.887 993.225L505.401 990.438L500.948 987.621L496.528 984.775L492.138 981.902L487.778 979.005L483.446 976.084L479.141 973.142L474.861 970.18L470.606 967.197L466.375 964.194L462.166 961.172L457.979 958.131L453.814 955.069L449.669 951.986L445.546 948.882L441.444 945.755L437.363 942.604L433.305 939.427L429.268 936.222L425.256 932.989L421.268 929.724L417.306 926.427L413.372 923.094L409.468 919.725L405.595 916.316L401.755 912.867L397.952 909.375L394.187 905.837L390.464 902.254L386.784 898.621L383.152 894.939L379.569 891.206L376.039 887.42L372.564 883.581L369.149 879.686L365.796 875.737L362.508 871.732L359.288 867.671L356.139 863.553L353.064 859.38L350.066 855.151L347.147 850.867L344.31 846.529L341.556 842.138L338.889 837.695L336.309 833.202L333.819 828.659L331.42 824.069L329.112 819.435L326.898 814.757L324.776 810.038L322.748 805.281L320.815 800.487L318.975 795.66L317.229 790.802L315.576 785.914L314.015 781L312.547 776.062L311.169 771.103L309.881 766.125L308.681 761.13L307.569 756.12L306.541 751.099L305.597 746.068L304.735 741.029L303.952 735.984L303.248 730.935L302.618 725.885L302.063 720.834L301.578 715.784L301.163 710.737L300.814 705.695L300.531 700.658L300.309 695.627L300.148 690.604L300.046 685.589L300 680.583L300.008 675.587L300.07 670.602L300.182 665.627L300.344 660.663L300.554 655.711L300.811 650.771L301.114 645.842L301.462 640.926L301.854 636.021L302.289 631.129L302.767 626.248L303.288 621.38L303.85 616.524L304.453 611.679L305.096 606.846L305.778 602.025L306.5 597.216L307.259 592.417L308.056 587.63L308.89 582.854L309.761 578.088L310.669 573.333L311.612 568.588L312.592 563.853L313.609 559.128L314.661 554.412L315.751 549.706L316.877 545.009L318.042 540.322L319.244 535.643L320.485 530.974L321.766 526.315L323.087 521.666L324.451 517.026L325.857 512.397L327.307 507.779L328.802 503.172L330.344 498.578L331.934 493.996L333.573 489.428L335.264 484.875L337.006 480.338L338.802 475.819L340.654 471.317L342.562 466.836L344.529 462.375L346.555 457.938L348.642 453.525L350.791 449.138L353.003 444.779L355.281 440.451L357.623 436.154L360.033 431.891L362.51 427.664L365.055 423.475L367.669 419.327L370.353 415.221L373.107 411.16L375.931 407.146L378.826 403.181L381.792 399.267L384.829 395.408L387.936 391.605L391.114 387.859L394.363 384.175L397.68 380.553L401.067 376.996L404.522 373.506L408.044 370.085L411.633 366.735L415.286 363.458L419.004 360.256L422.784 357.129L426.625 354.081L430.525 351.113L434.484 348.225L438.498 345.42L442.566 342.698L446.687 340.061L450.857 337.509L455.076 335.045L459.341 332.668L463.65 330.379L468 328.179L472.39 326.068L476.817 324.047L481.279 322.116L485.773 320.275L490.297 318.525L494.85 316.865L499.427 315.295L504.028 313.814L508.649 312.421L513.287 311.115L517.94 309.895L522.606 308.758L527.281 307.704L531.964 306.73L536.652 305.834L541.342 305.014L546.032 304.266L550.721 303.59L555.406 302.981L560.085 302.438L564.757 301.957L569.421 301.536L574.073 301.172L578.715 300.863L583.344 300.605L587.959 300.396L592.56 300.234L597.146 300.115L601.716 300.039L606.271 300.001L610.809 300L615.331 300.034L619.837 300.101L624.326 300.198L628.8 300.325L633.258 300.48L637.7 300.661L642.128 300.866L646.541 301.095L650.94 301.346L655.327 301.619L659.7 301.913L664.062 302.226L668.413 302.559L672.754 302.91L677.085 303.28L681.407 303.667L685.722 304.072L690.029 304.495L694.33 304.935L698.626 305.392L702.916 305.868L707.203 306.363L711.486 306.877L715.766 307.411L720.045 307.968L724.321 308.547L728.596 309.15L732.869 309.779L737.142 310.435L741.414 311.12L745.685 311.835L749.955 312.583L754.224 313.366L758.491 314.184L762.756 315.04L767.019 315.936L771.278 316.875L775.534 317.857L779.785 318.884L784.03 319.96L788.269 321.085L792.499 322.26L796.721 323.489L800.932 324.773L805.132 326.113L809.318 327.51L813.49 328.966L817.645 330.483L821.783 332.061L825.901 333.702L829.998 335.406L834.073 337.175L838.122 339.01L842.145 340.91L846.14 342.877L850.105 344.911L854.038 347.012L857.937 349.182L861.8 351.42L865.624 353.727L869.409 356.103L873.152 358.549L876.85 361.064L880.502 363.647L884.105 366.3L887.658 369.022L891.158 371.813L894.603 374.671L897.991 377.597L901.321 380.59L904.59 383.648L907.796 386.772L910.938 389.959L914.014 393.21L917.022 396.522L919.961 399.894L922.829 403.325L925.625 406.813L928.348 410.357L930.996 413.954L933.569 417.603L936.066 421.301L938.486 425.047L940.829 428.839L943.095 432.673L945.283 436.549L947.394 440.463L949.428 444.413L951.385 448.397L953.266 452.412L955.072 456.455L956.805 460.524L958.465 464.617L960.054 468.731L961.574 472.864L963.027 477.012L964.416 481.174L965.742 485.347L967.009 489.529L968.219 493.718L969.374 497.912L970.478 502.109L971.533 506.307L972.542 510.505L973.509 514.702L974.437 518.897L975.328 523.087L976.187 527.273L977.015 531.454L977.816 535.629L978.593 539.798L979.35 543.96L980.089 548.116L980.812 552.265L981.524 556.409L982.226 560.547L982.922 564.68L983.612 568.808L984.301 572.934L984.99 577.057L985.68 581.18L986.374 585.303L987.073 589.427L987.779 593.555L988.492 597.687L989.214 601.826L989.945 605.973L990.686 610.131L991.436 614.299L992.196 618.482L992.965 622.68L993.742 626.895L994.528 631.129Z" fill="#AE89FF"/>
</g>
<defs>
<filter id="filter0_f_345_4334" x="0" y="0" width="1308" height="1345" filterUnits="userSpaceOnUse" color-interpolation-filters="sRGB">
<feFlood flood-opacity="0" result="BackgroundImageFix"/>
<feBlend mode="normal" in="SourceGraphic" in2="BackgroundImageFix" result="shape"/>
<feGaussianBlur stdDeviation="150" result="effect1_foregroundBlur_345_4334"/>
</filter>
</defs>
</svg>
