<svg width="681" height="694" viewBox="0 0 681 694" fill="none" xmlns="http://www.w3.org/2000/svg">
<g opacity="0.1" filter="url(#filter0_f_345_4333)">
<path fill-rule="evenodd" clip-rule="evenodd" d="M340.246 641.304L341.071 645.006L341.993 648.732L343.009 652.486L344.115 656.274L345.308 660.098L346.581 663.963L347.931 667.873L349.35 671.831L350.833 675.841L352.371 679.906L353.958 684.026L355.585 688.206L357.243 692.446L358.923 696.747L360.615 701.11L362.31 705.536L363.996 710.022L365.663 714.57L367.3 719.176L368.895 723.84L370.439 728.557L371.918 733.326L373.323 738.142L374.642 743.001L375.864 747.898L376.979 752.828L377.977 757.785L378.848 762.763L379.582 767.756L380.172 772.758L380.61 777.76L380.888 782.756L381 787.74L380.941 792.702L380.705 797.637L380.29 802.537L379.692 807.395L378.909 812.203L377.939 816.954L376.781 821.642L375.436 826.26L373.903 830.802L372.185 835.261L370.283 839.632L368.201 843.909L365.941 848.088L363.509 852.164L360.909 856.133L358.147 859.992L355.228 863.738L352.16 867.369L348.95 870.884L345.605 874.281L342.133 877.561L338.543 880.723L334.843 883.768L331.043 886.7L327.151 889.519L323.176 892.229L319.128 894.833L315.016 897.335L310.849 899.742L306.636 902.056L302.387 904.286L298.109 906.436L293.812 908.514L289.502 910.527L285.189 912.482L280.879 914.386L276.579 916.249L272.295 918.078L268.034 919.882L263.799 921.667L259.597 923.444L255.431 925.221L251.304 927.004L247.219 928.803L243.178 930.624L239.182 932.476L235.233 934.364L231.331 936.296L227.475 938.278L223.663 940.314L219.896 942.41L216.169 944.57L212.481 946.797L208.828 949.095L205.206 951.464L201.613 953.907L198.042 956.424L194.489 959.015L190.95 961.678L187.419 964.411L183.891 967.211L180.359 970.075L176.819 972.998L173.266 975.976L169.693 979.001L166.095 982.069L162.468 985.173L158.807 988.306L155.107 991.459L151.364 994.627L147.574 997.799L143.734 1000.97L139.84 1004.13L135.89 1007.26L131.881 1010.37L127.812 1013.44L123.68 1016.46L119.485 1019.42L115.227 1022.32L110.904 1025.14L106.518 1027.88L102.068 1030.53L97.5564 1033.08L92.9844 1035.53L88.3538 1037.86L83.6669 1040.08L78.9263 1042.17L74.1347 1044.13L69.2953 1045.96L64.4113 1047.65L59.4862 1049.19L54.5237 1050.59L49.5276 1051.84L44.5022 1052.92L39.4514 1053.85L34.3799 1054.62L29.2921 1055.22L24.1927 1055.65L19.0866 1055.91L13.9785 1056L8.87366 1055.91L3.77701 1055.64L-1.30624 1055.2L-6.37097 1054.57L-11.4119 1053.77L-16.4239 1052.78L-21.4016 1051.61L-26.3399 1050.27L-31.2337 1048.74L-36.0779 1047.04L-40.8675 1045.17L-45.5977 1043.12L-50.2635 1040.89L-54.8605 1038.5L-59.3841 1035.95L-63.83 1033.23L-68.1941 1030.35L-72.4724 1027.32L-76.6613 1024.14L-80.7572 1020.82L-84.7569 1017.35L-88.6574 1013.75L-92.4559 1010.03L-96.1499 1006.17L-99.7373 1002.2L-103.216 998.118L-106.585 993.929L-109.842 989.64L-112.986 985.258L-116.017 980.789L-118.933 976.24L-121.736 971.617L-124.424 966.927L-126.999 962.176L-129.461 957.372L-131.81 952.52L-134.048 947.627L-136.176 942.699L-138.196 937.742L-140.109 932.763L-141.918 927.768L-143.625 922.762L-145.231 917.75L-146.741 912.739L-148.156 907.733L-149.48 902.738L-150.715 897.759L-151.864 892.799L-152.931 887.863L-153.92 882.957L-154.834 878.083L-155.676 873.246L-156.451 868.449L-157.163 863.697L-157.815 858.992L-158.412 854.338L-158.959 849.738L-159.459 845.193L-159.918 840.708L-160.339 836.284L-160.727 831.924L-161.088 827.628L-161.425 823.4L-161.745 819.241L-162.051 815.152L-162.35 811.134L-162.646 807.19L-162.946 803.32L-163.256 799.526L-163.581 795.808L-163.929 792.168L-164.306 788.606L-164.72 785.123L-165.177 781.72L-165.685 778.396L-166.249 775.151L-166.877 771.983L-167.573 768.891L-168.343 765.873L-169.193 762.927L-170.126 760.049L-171.148 757.237L-172.262 754.487L-173.471 751.795L-174.779 749.157L-176.187 746.569L-177.697 744.026L-179.312 741.522L-181.031 739.054L-182.855 736.616L-184.784 734.202L-186.817 731.807L-188.954 729.425L-191.192 727.052L-193.529 724.68L-195.964 722.306L-198.491 719.923L-201.11 717.527L-203.814 715.111L-206.6 712.67L-209.464 710.2L-212.4 707.696L-215.403 705.153L-218.467 702.566L-221.586 699.932L-224.755 697.246L-227.965 694.506L-231.212 691.706L-234.488 688.845L-237.786 685.92L-241.1 682.927L-244.421 679.865L-247.744 676.732L-251.06 673.527L-254.364 670.247L-257.647 666.893L-260.902 663.463L-264.124 659.958L-267.305 656.376L-270.438 652.72L-273.517 648.988L-276.536 645.182L-279.489 641.304L-282.37 637.353L-285.174 633.333L-287.895 629.245L-290.529 625.09L-293.07 620.871L-295.515 616.591L-297.858 612.251L-300.098 607.855L-302.229 603.405L-304.249 598.905L-306.155 594.356L-307.943 589.764L-309.61 585.129L-311.153 580.457L-312.568 575.751L-313.851 571.015L-315.001 566.252L-316.012 561.468L-316.881 556.665L-317.606 551.85L-318.183 547.025L-318.61 542.197L-318.883 537.37L-319 532.549L-318.958 527.74L-318.755 522.947L-318.388 518.177L-317.856 513.434L-317.155 508.726L-316.285 504.057L-315.243 499.433L-314.027 494.862L-312.636 490.349L-311.066 485.902L-309.318 481.527L-307.389 477.231L-305.279 473.021L-302.987 468.904L-300.515 464.886L-297.864 460.973L-295.035 457.171L-292.032 453.487L-288.857 449.926L-285.515 446.492L-282.009 443.19L-278.345 440.026L-274.527 437.002L-270.563 434.122L-266.457 431.389L-262.218 428.806L-257.852 426.375L-253.367 424.096L-248.771 421.972L-244.071 420.001L-239.277 418.185L-234.397 416.522L-229.44 415.011L-224.415 413.651L-219.33 412.438L-214.195 411.371L-209.019 410.446L-203.81 409.658L-198.578 409.005L-193.331 408.48L-188.077 408.08L-182.826 407.797L-177.584 407.628L-172.36 407.564L-167.162 407.6L-161.995 407.729L-156.868 407.945L-151.786 408.238L-146.756 408.604L-141.782 409.033L-136.871 409.519L-132.025 410.053L-127.251 410.629L-122.55 411.239L-117.927 411.875L-113.383 412.53L-108.922 413.197L-104.544 413.869L-100.251 414.54L-96.044 415.203L-91.9225 415.852L-87.8865 416.481L-83.9355 417.085L-80.0685 417.658L-76.2839 418.197L-72.58 418.696L-68.9546 419.153L-65.4054 419.563L-61.9297 419.925L-58.5243 420.235L-55.1863 420.491L-51.9122 420.693L-48.6987 420.839L-45.5427 420.926L-42.4409 420.952L-39.3901 420.917L-36.3873 420.818L-33.4291 420.652L-30.5125 420.418L-27.6339 420.114L-24.7902 419.737L-21.978 419.287L-19.1938 418.761L-16.434 418.157L-13.6952 417.474L-10.9737 416.71L-8.26584 415.865L-5.56796 414.936L-2.87622 413.922L-0.18689 412.822L2.50391 411.634L5.20001 410.358L7.90536 408.992L10.6239 407.534L13.3595 405.983L16.1164 404.337L18.8987 402.594L21.7106 400.754L24.5566 398.817L27.441 396.781L30.3683 394.649L33.3428 392.422L36.3691 390.102L39.4514 387.691L42.594 385.194L45.8008 382.613L49.0758 379.954L52.4227 377.222L55.8448 374.422L59.3454 371.561L62.9272 368.645L66.593 365.683L70.3448 362.68L74.1844 359.647L78.1133 356.59L82.1325 353.52L86.2427 350.445L90.4438 347.375L94.7357 344.32L99.1175 341.289L103.588 338.293L108.145 335.341L112.788 332.444L117.512 329.612L122.316 326.855L127.195 324.183L132.146 321.606L137.164 319.133L142.244 316.773L147.382 314.537L152.571 312.432L157.806 310.467L163.081 308.65L168.388 306.988L173.723 305.488L179.077 304.158L184.444 303.002L189.816 302.027L195.186 301.236L200.547 300.635L205.891 300.227L211.212 300.014L216.5 300L221.751 300.185L226.955 300.571L232.108 301.158L237.201 301.945L242.228 302.932L247.183 304.117L252.061 305.497L256.855 307.071L261.561 308.834L266.174 310.783L270.69 312.913L275.104 315.218L279.413 317.695L283.615 320.337L287.707 323.137L291.686 326.091L295.55 329.192L299.297 332.433L302.926 335.81L306.434 339.315L309.822 342.943L313.087 346.688L316.229 350.544L319.247 354.505L322.141 358.564L324.91 362.717L327.556 366.957L330.077 371.279L332.474 375.677L334.747 380.145L336.898 384.679L338.927 389.273L340.833 393.922L342.619 398.622L344.284 403.368L345.829 408.156L347.254 412.981L348.56 417.841L349.746 422.73L350.814 427.647L351.763 432.587L352.595 437.545L353.31 442.519L353.911 447.505L354.4 452.497L354.778 457.493L355.048 462.489L355.213 467.479L355.277 472.462L355.242 477.431L355.114 482.384L354.896 487.317L354.593 492.226L354.21 497.108L353.752 501.959L353.224 506.776L352.634 511.556L351.986 516.296L351.288 520.994L350.545 525.646L349.765 530.252L348.954 534.809L348.121 539.315L347.271 543.77L346.413 548.172L345.553 552.52L344.7 556.815L343.859 561.057L343.04 565.245L342.249 569.381L341.493 573.466L340.779 577.501L340.114 581.488L339.504 585.428L338.956 589.326L338.475 593.182L338.067 597L337.737 600.785L337.49 604.538L337.329 608.264L337.26 611.967L337.285 615.651L337.406 619.321L337.627 622.982L337.947 626.637L338.37 630.292L338.894 633.952L339.52 637.62L340.246 641.304Z" fill="#AE89FF"/>
</g>
<defs>
<filter id="filter0_f_345_4333" x="-619" y="0" width="1300" height="1356" filterUnits="userSpaceOnUse" color-interpolation-filters="sRGB">
<feFlood flood-opacity="0" result="BackgroundImageFix"/>
<feBlend mode="normal" in="SourceGraphic" in2="BackgroundImageFix" result="shape"/>
<feGaussianBlur stdDeviation="150" result="effect1_foregroundBlur_345_4333"/>
</filter>
</defs>
</svg>
