<svg width="796" height="788" viewBox="0 0 796 788" fill="none" xmlns="http://www.w3.org/2000/svg">
<g opacity="0.1" filter="url(#filter0_f_345_4332)">
<path fill-rule="evenodd" clip-rule="evenodd" d="M1058.13 11.3187L1059.08 15.5743L1060.14 19.8573L1061.31 24.1728L1062.58 28.5261L1063.95 32.9218L1065.42 37.3649L1066.97 41.8594L1068.6 46.4095L1070.31 51.0187L1072.08 55.6903L1073.9 60.4271L1075.77 65.2315L1077.68 70.1051L1079.61 75.0493L1081.56 80.0646L1083.51 85.1514L1085.45 90.3089L1087.36 95.536L1089.24 100.831L1091.08 106.191L1092.85 111.614L1094.56 117.096L1096.17 122.631L1097.69 128.216L1099.09 133.845L1100.38 139.512L1101.52 145.21L1102.52 150.933L1103.37 156.672L1104.05 162.421L1104.55 168.171L1104.87 173.914L1105 179.643L1104.93 185.347L1104.66 191.019L1104.18 196.652L1103.5 202.235L1102.6 207.762L1101.48 213.224L1100.15 218.613L1098.6 223.921L1096.84 229.141L1094.86 234.267L1092.68 239.291L1090.28 244.208L1087.68 249.011L1084.89 253.696L1081.9 258.258L1078.72 262.694L1075.36 267.001L1071.83 271.174L1068.14 275.215L1064.3 279.119L1060.3 282.889L1056.17 286.524L1051.92 290.025L1047.55 293.394L1043.07 296.635L1038.5 299.749L1033.85 302.743L1029.12 305.62L1024.33 308.385L1019.48 311.046L1014.59 313.609L1009.68 316.081L1004.73 318.469L999.778 320.783L994.818 323.03L989.861 325.219L984.916 327.361L979.99 329.463L975.089 331.536L970.219 333.589L965.387 335.631L960.595 337.673L955.849 339.723L951.151 341.79L946.504 343.884L941.91 346.012L937.368 348.183L932.881 350.404L928.446 352.681L924.063 355.022L919.73 357.431L915.444 359.914L911.203 362.474L907.002 365.115L902.837 367.839L898.704 370.648L894.598 373.541L890.513 376.519L886.443 379.579L882.382 382.721L878.324 385.94L874.263 389.232L870.192 392.592L866.106 396.014L861.997 399.492L857.859 403.019L853.688 406.586L849.478 410.187L845.223 413.812L840.918 417.453L836.56 421.1L832.144 424.743L827.666 428.372L823.123 431.977L818.513 435.549L813.833 439.076L809.082 442.547L804.258 445.954L799.361 449.285L794.39 452.531L789.345 455.681L784.228 458.727L779.04 461.66L773.782 464.471L768.457 467.153L763.067 469.699L757.615 472.102L752.105 474.357L746.54 476.457L740.923 478.398L735.259 480.175L729.552 481.781L723.807 483.213L718.027 484.465L712.219 485.534L706.387 486.416L700.536 487.106L694.672 487.602L688.8 487.901L682.925 488L677.055 487.897L671.194 487.59L665.348 487.077L659.523 486.358L653.726 485.432L647.963 484.299L642.238 482.959L636.559 481.412L630.931 479.66L625.36 477.705L619.852 475.547L614.413 473.19L609.047 470.636L603.76 467.888L598.558 464.95L593.445 461.826L588.427 458.52L583.507 455.037L578.69 451.383L573.979 447.561L569.38 443.578L564.894 439.44L560.526 435.154L556.278 430.724L552.152 426.16L548.152 421.466L544.278 416.651L540.532 411.721L536.916 406.684L533.431 401.547L530.077 396.318L526.854 391.004L523.762 385.613L520.801 380.152L517.97 374.63L515.269 369.053L512.695 363.428L510.248 357.764L507.925 352.066L505.725 346.343L503.645 340.601L501.682 334.846L499.834 329.086L498.098 323.326L496.47 317.572L494.948 311.83L493.528 306.106L492.206 300.405L490.979 294.732L489.842 289.092L488.791 283.489L487.823 277.929L486.931 272.416L486.113 266.953L485.363 261.545L484.676 256.195L484.047 250.907L483.472 245.684L482.945 240.528L482.46 235.443L482.014 230.431L481.599 225.493L481.211 220.633L480.844 215.852L480.491 211.152L480.148 206.534L479.807 202.001L479.462 197.552L479.106 193.191L478.732 188.917L478.332 184.732L477.898 180.638L477.422 176.635L476.896 172.723L476.312 168.902L475.663 165.172L474.942 161.531L474.141 157.977L473.255 154.508L472.278 151.121L471.205 147.813L470.029 144.581L468.749 141.42L467.358 138.325L465.854 135.293L464.235 132.318L462.498 129.395L460.642 126.517L458.665 123.68L456.567 120.877L454.348 118.102L452.01 115.349L449.553 112.612L446.979 109.883L444.291 107.158L441.492 104.429L438.585 101.69L435.574 98.9347L432.464 96.1575L429.26 93.3522L425.966 90.5131L422.59 87.6346L419.137 84.7113L415.613 81.7381L412.026 78.7103L408.382 75.6233L404.69 72.4728L400.956 69.2549L397.189 65.9662L393.396 62.6033L389.585 59.1634L385.765 55.6439L381.944 52.0427L378.13 48.3579L374.332 44.5883L370.556 40.7326L366.812 36.7902L363.108 32.7607L359.45 28.6442L355.847 24.4409L352.306 20.1516L348.834 15.7771L345.438 11.3187L342.124 6.77798L338.9 2.1568L335.771 -2.54285L332.742 -7.31857L329.82 -12.1679L327.008 -17.0881L324.313 -22.0764L321.738 -27.1295L319.287 -32.2444L316.964 -37.4176L314.772 -42.6458L312.716 -47.9253L310.799 -53.2522L309.024 -58.6225L307.397 -64.032L305.921 -69.4763L304.599 -74.9507L303.437 -80.4505L302.437 -85.9708L301.603 -91.5062L300.939 -97.0516L300.449 -102.601L300.134 -108.15L300 -113.691L300.048 -119.22L300.282 -124.729L300.703 -130.212L301.316 -135.663L302.121 -141.076L303.122 -146.443L304.32 -151.757L305.719 -157.012L307.319 -162.199L309.124 -167.311L311.134 -172.34L313.353 -177.278L315.78 -182.117L318.415 -186.85L321.258 -191.469L324.307 -195.966L327.559 -200.336L331.013 -204.571L334.664 -208.665L338.508 -212.612L342.54 -216.407L346.754 -220.044L351.144 -223.52L355.703 -226.831L360.424 -229.972L365.299 -232.941L370.32 -235.736L375.478 -238.355L380.764 -240.797L386.168 -243.062L391.681 -245.15L397.293 -247.061L402.994 -248.798L408.773 -250.362L414.62 -251.755L420.526 -252.982L426.478 -254.046L432.468 -254.951L438.485 -255.702L444.52 -256.305L450.561 -256.766L456.601 -257.09L462.628 -257.285L468.636 -257.358L474.614 -257.317L480.555 -257.168L486.452 -256.921L492.296 -256.583L498.081 -256.163L503.8 -255.67L509.449 -255.112L515.021 -254.497L520.512 -253.835L525.918 -253.135L531.234 -252.403L536.459 -251.65L541.59 -250.883L546.624 -250.11L551.561 -249.339L556.399 -248.577L561.139 -247.832L565.78 -247.109L570.324 -246.415L574.771 -245.756L579.124 -245.137L583.383 -244.562L587.552 -244.037L591.634 -243.566L595.631 -243.15L599.547 -242.794L603.386 -242.499L607.151 -242.267L610.846 -242.1L614.476 -242L618.043 -241.969L621.551 -242.009L625.005 -242.124L628.406 -242.314L631.761 -242.583L635.071 -242.933L638.341 -243.366L641.575 -243.883L644.777 -244.488L647.951 -245.182L651.101 -245.967L654.23 -246.845L657.344 -247.817L660.447 -248.885L663.542 -250.05L666.635 -251.315L669.73 -252.68L672.83 -254.146L675.941 -255.717L679.067 -257.393L682.213 -259.176L685.384 -261.068L688.583 -263.071L691.817 -265.186L695.09 -267.413L698.407 -269.753L701.773 -272.203L705.194 -274.763L708.675 -277.43L712.219 -280.201L715.833 -283.072L719.521 -286.038L723.287 -289.095L727.136 -292.236L731.072 -295.454L735.097 -298.743L739.216 -302.094L743.432 -305.5L747.746 -308.951L752.162 -312.438L756.68 -315.951L761.302 -319.48L766.029 -323.015L770.86 -326.543L775.796 -330.055L780.835 -333.539L785.976 -336.983L791.217 -340.376L796.556 -343.706L801.989 -346.962L807.513 -350.131L813.124 -353.202L818.818 -356.165L824.588 -359.008L830.431 -361.72L836.339 -364.29L842.306 -366.71L848.327 -368.969L854.393 -371.058L860.497 -372.968L866.631 -374.691L872.789 -376.221L878.96 -377.549L885.138 -378.67L891.314 -379.579L897.479 -380.27L903.625 -380.739L909.743 -380.983L915.826 -381L921.863 -380.787L927.849 -380.344L933.774 -379.669L939.631 -378.764L945.412 -377.63L951.111 -376.268L956.72 -374.681L962.233 -372.872L967.645 -370.845L972.95 -368.606L978.143 -366.157L983.219 -363.507L988.175 -360.66L993.008 -357.623L997.713 -354.404L1002.29 -351.009L1006.73 -347.445L1011.04 -343.719L1015.21 -339.838L1019.25 -335.809L1023.15 -331.638L1026.9 -327.333L1030.51 -322.901L1033.98 -318.349L1037.31 -313.682L1040.5 -308.909L1043.54 -304.035L1046.44 -299.067L1049.19 -294.012L1051.81 -288.876L1054.28 -283.664L1056.62 -278.383L1058.81 -273.039L1060.86 -267.637L1062.78 -262.182L1064.55 -256.678L1066.19 -251.132L1067.69 -245.546L1069.06 -239.925L1070.29 -234.273L1071.38 -228.595L1072.33 -222.895L1073.16 -217.178L1073.85 -211.448L1074.41 -205.709L1074.84 -199.966L1075.16 -194.224L1075.35 -188.487L1075.42 -182.76L1075.38 -177.048L1075.23 -171.355L1074.98 -165.684L1074.63 -160.041L1074.19 -154.43L1073.66 -148.854L1073.06 -143.317L1072.38 -137.822L1071.63 -132.374L1070.83 -126.974L1069.98 -121.626L1069.08 -116.332L1068.15 -111.094L1067.19 -105.914L1066.21 -100.794L1065.22 -95.7341L1064.24 -90.7354L1063.25 -85.7984L1062.29 -80.9229L1061.35 -76.1084L1060.44 -71.3541L1059.57 -66.6588L1058.75 -62.0209L1057.98 -57.4382L1057.28 -52.9084L1056.65 -48.4287L1056.1 -43.9959L1055.63 -39.6066L1055.25 -35.257L1054.96 -30.9428L1054.78 -26.6597L1054.7 -22.4031L1054.73 -18.168L1054.87 -13.9494L1055.12 -9.74197L1055.49 -5.54034L1055.98 -1.33902L1056.58 2.86752L1057.3 7.08493L1058.13 11.3187Z" fill="#AE89FF"/>
</g>
<defs>
<filter id="filter0_f_345_4332" x="0" y="-681" width="1405" height="1469" filterUnits="userSpaceOnUse" color-interpolation-filters="sRGB">
<feFlood flood-opacity="0" result="BackgroundImageFix"/>
<feBlend mode="normal" in="SourceGraphic" in2="BackgroundImageFix" result="shape"/>
<feGaussianBlur stdDeviation="150" result="effect1_foregroundBlur_345_4332"/>
</filter>
</defs>
</svg>
