<svg preserveAspectRatio="none" width="100%" height="100%" overflow="visible" style="display: block;" viewBox="0 0 26 24" fill="none" xmlns="http://www.w3.org/2000/svg">
<path id="Vector" d="M18.8148 20.1852C19.5417 20.1852 20.2388 20.4739 20.7528 20.9879C21.2668 21.5019 21.5556 22.199 21.5556 22.9259C21.5556 22.199 21.8443 21.5019 22.3583 20.9879C22.8723 20.4739 23.5694 20.1852 24.2963 20.1852C23.5694 20.1852 22.8723 19.8964 22.3583 19.3824C21.8443 18.8685 21.5556 18.1713 21.5556 17.4444C21.5556 18.1713 21.2668 18.8685 20.7528 19.3824C20.2388 19.8964 19.5417 20.1852 18.8148 20.1852ZM18.8148 3.74074C19.5417 3.74074 20.2388 4.0295 20.7528 4.54349C21.2668 5.05747 21.5556 5.75459 21.5556 6.48148C21.5556 5.75459 21.8443 5.05747 22.3583 4.54349C22.8723 4.0295 23.5694 3.74074 24.2963 3.74074C23.5694 3.74074 22.8723 3.45199 22.3583 2.938C21.8443 2.42401 21.5556 1.72689 21.5556 1C21.5556 1.72689 21.2668 2.42401 20.7528 2.938C20.2388 3.45199 19.5417 3.74074 18.8148 3.74074ZM9.22222 20.1852C9.22222 18.0045 10.0885 15.9132 11.6305 14.3712C13.1724 12.8292 15.2638 11.963 17.4444 11.963C15.2638 11.963 13.1724 11.0967 11.6305 9.55473C10.0885 8.01276 9.22222 5.92141 9.22222 3.74074C9.22222 5.92141 8.35596 8.01276 6.81399 9.55473C5.27202 11.0967 3.18067 11.963 1 11.963C3.18067 11.963 5.27202 12.8292 6.81399 14.3712C8.35596 15.9132 9.22222 18.0045 9.22222 20.1852Z" fill="var(--fill-0, black)" stroke="var(--stroke-0, black)" stroke-width="1.64444" stroke-linecap="round" stroke-linejoin="round"/>
</svg>
