<svg width="24" height="24" viewBox="0 0 24 24" fill="none" xmlns="http://www.w3.org/2000/svg">
<g clip-path="url(#clip0_345_4399)">
<path d="M9.59265 4.7962C9.59265 4.28738 9.79478 3.7994 10.1546 3.43961C10.5144 3.07981 11.0023 2.87769 11.5112 2.87769C12.02 2.87769 12.508 3.07981 12.8678 3.43961C13.2276 3.7994 13.4297 4.28738 13.4297 4.7962C14.5313 5.31711 15.4704 6.12797 16.1464 7.14188C16.8223 8.15579 17.2096 9.33453 17.2667 10.5518V13.4295C17.3389 14.0259 17.5501 14.597 17.8834 15.0969C18.2166 15.5967 18.6625 16.0113 19.1852 16.3073H3.8371C4.35983 16.0113 4.80577 15.5967 5.13899 15.0969C5.47222 14.597 5.68343 14.0259 5.75562 13.4295V10.5518C5.81275 9.33453 6.20004 8.15579 6.87598 7.14188C7.55192 6.12797 8.49103 5.31711 9.59265 4.7962Z" stroke="white" stroke-width="1.64444" stroke-linecap="round" stroke-linejoin="round"/>
<path d="M8.63333 16.3074V17.2666C8.63333 18.0299 8.93652 18.7618 9.47621 19.3015C10.0159 19.8412 10.7479 20.1444 11.5111 20.1444C12.2743 20.1444 13.0063 19.8412 13.546 19.3015C14.0857 18.7618 14.3889 18.0299 14.3889 17.2666V16.3074" stroke="white" stroke-width="1.64444" stroke-linecap="round" stroke-linejoin="round"/>
</g>
<defs>
<clipPath id="clip0_345_4399">
<rect width="23.0222" height="23.0222" fill="white"/>
</clipPath>
</defs>
</svg>
