<svg width="28" height="26" viewBox="0 0 28 26" fill="none" xmlns="http://www.w3.org/2000/svg">
<path d="M19.5705 0C20.6432 2.2463e-05 21.6343 0.572329 22.1706 1.50127L27.6933 11.0667C27.8993 11.4234 27.5985 11.8174 27.1867 11.8174H22.3048C20.314 11.8173 18.4048 11.0264 16.9971 9.61872C15.5894 8.21101 14.7984 6.3018 14.7984 4.31101C14.7984 3.89645 14.4624 3.56038 14.0478 3.56038C13.6333 3.56041 13.2972 3.89647 13.2972 4.31101C13.2972 6.30182 12.5062 8.21101 11.0985 9.61872C9.69081 11.0264 7.78161 11.8174 5.79082 11.8174C5.37628 11.8174 5.04018 12.1534 5.04018 12.568C5.04018 12.9825 5.37628 13.3186 5.79082 13.3186C7.78161 13.3186 9.69081 14.1096 11.0985 15.5173C12.5062 16.925 13.2972 18.8342 13.2972 20.825C13.2972 21.2395 13.6333 21.5756 14.0478 21.5756C14.4624 21.5756 14.7984 21.2395 14.7984 20.825C14.7984 18.8342 15.5894 16.925 16.9971 15.5173C18.4048 14.1096 20.314 13.3186 22.3048 13.3186H27.1867C27.5985 13.3186 27.8993 13.7126 27.6933 14.0693L22.1706 23.6347C21.6343 24.5636 20.6432 25.1359 19.5705 25.136H8.5253C7.4526 25.136 6.46132 24.5637 5.92496 23.6347L0.402235 14.0693C-0.134078 13.1403 -0.134078 11.9957 0.402235 11.0667L5.92496 1.50127C6.46132 0.572282 7.4526 -4.68883e-08 8.5253 0H19.5705Z" fill="url(#paint0_linear_345_4133)"/>
<path d="M27.188 13.319C27.5994 13.3193 27.9 13.7126 27.6948 14.069L25.9653 17.0621C24.8815 16.5507 23.6709 16.2633 22.3931 16.2633C19.0019 16.2633 16.083 18.2785 14.7632 21.1754V21.0416C14.784 20.9727 14.8003 20.9005 14.8003 20.8248C14.8004 18.8342 15.5909 16.9248 16.9985 15.5172C18.4062 14.1098 20.3156 13.319 22.3062 13.319H27.188Z" fill="url(#paint1_linear_345_4133)"/>
<defs>
<linearGradient id="paint0_linear_345_4133" x1="14" y1="0" x2="14" y2="25.136" gradientUnits="userSpaceOnUse">
<stop stop-color="#E5BEFE"/>
<stop offset="1" stop-color="#553CFE"/>
</linearGradient>
<linearGradient id="paint1_linear_345_4133" x1="16.6407" y1="17.2642" x2="27.0239" y2="14.8871" gradientUnits="userSpaceOnUse">
<stop stop-color="#452DE2"/>
<stop offset="1" stop-color="#8769FE"/>
</linearGradient>
</defs>
</svg>
