<svg width="20" height="22" viewBox="0 0 20 22" fill="none" xmlns="http://www.w3.org/2000/svg">
<path d="M17.6116 5.27344C17.4381 5.22656 17.26 5.20312 17.0819 5.20312C16.885 5.20312 16.6928 5.23125 16.51 5.28516L16.803 4.18828C17.0936 3.09844 16.4467 1.97578 15.3569 1.68281C15.1835 1.63594 15.0053 1.6125 14.8272 1.6125C14.5624 1.6125 14.3069 1.66406 14.0702 1.75781C14.0327 1.50234 13.9483 1.25391 13.8147 1.02422C13.5405 0.550781 13.0999 0.213281 12.5725 0.0703125C12.3991 0.0234375 12.221 0 12.0428 0C11.1194 0 10.3085 0.623437 10.0694 1.51641L10.046 1.60313C9.79517 1.34063 9.47408 1.14141 9.09674 1.04063C8.9233 0.99375 8.74517 0.970313 8.56705 0.970313C7.64361 0.970313 6.83267 1.59375 6.59361 2.48672L4.60377 9.90938L3.73892 8.40938C3.37564 7.77891 2.69595 7.3875 1.96705 7.3875C1.6108 7.3875 1.25689 7.48125 0.945172 7.66172C0.476422 7.93125 0.16939 8.35313 0.052203 8.87578C-0.041547 9.30234 -0.00873437 9.79688 0.148297 10.3453C0.176422 10.4391 0.209234 10.5656 0.251422 10.7133C0.633453 12.0984 1.52642 15.3445 2.95377 17.4586C4.54752 19.8211 6.83736 20.618 6.99439 20.6695C8.02564 21.0305 9.04283 21.2109 10.0178 21.2109C11.5178 21.2109 12.8444 20.7891 13.9647 19.9547C15.1647 19.0594 16.0647 17.7305 16.6342 16.0008C18.085 11.6086 19.0249 7.90312 19.06 7.76953C19.3483 6.68672 18.6991 5.56406 17.6116 5.27344ZM18.1061 7.52344C18.1061 7.52578 18.1038 7.52813 18.1038 7.53047C18.0944 7.56797 17.1569 11.2781 15.6967 15.6961C15.1905 17.2289 14.41 18.3984 13.3741 19.1695C12.4295 19.8727 11.2999 20.2312 10.0155 20.2312C9.15064 20.2312 8.24127 20.0672 7.31314 19.7414C7.3108 19.7414 7.30845 19.7391 7.30611 19.7391C7.30142 19.7367 6.76705 19.5586 6.06627 19.118C4.90611 18.3891 4.1772 17.5148 3.76705 16.9102C2.42877 14.9273 1.56627 11.7914 1.1983 10.4531C1.15611 10.3031 1.12095 10.1742 1.09283 10.0734C1.0108 9.78516 0.757672 8.90625 1.43502 8.51484C1.59673 8.42109 1.77955 8.37188 1.9647 8.37188C2.34439 8.37188 2.69595 8.57578 2.8858 8.90156L4.34595 11.4305C4.44439 11.6039 4.63892 11.6977 4.8358 11.6719C5.03267 11.6461 5.19439 11.5031 5.24595 11.3109L7.54283 2.74219C7.66705 2.27812 8.08892 1.95469 8.56705 1.95469C8.65845 1.95469 8.7522 1.96641 8.84127 1.99219C9.40611 2.14453 9.74127 2.72578 9.59127 3.29062L7.94595 9.42891C7.87564 9.69141 8.03033 9.96094 8.29283 10.0312C8.33502 10.043 8.3772 10.0477 8.41939 10.0477C8.63736 10.0477 8.83658 9.90234 8.89517 9.68203L10.5381 3.54844V3.54609V3.54375L11.0139 1.76953C11.1381 1.30547 11.56 0.982031 12.0381 0.982031C12.1295 0.982031 12.2233 0.99375 12.3147 1.01953C12.5889 1.09219 12.8163 1.26797 12.9592 1.51406C13.0999 1.76016 13.1397 2.04609 13.0647 2.32031L12.8795 3.01172L10.946 10.2305C10.8756 10.493 11.0303 10.7625 11.2928 10.8328C11.335 10.8445 11.3772 10.8492 11.4194 10.8492C11.6374 10.8492 11.8366 10.7039 11.8952 10.4836L13.7983 3.37969V3.375C13.9225 2.91328 14.3444 2.58984 14.8225 2.58984C14.9139 2.58984 15.0077 2.60156 15.0991 2.62734C15.6639 2.77969 16.0014 3.36094 15.8491 3.92578L15.1061 6.71719V6.72188L13.8428 11.4375C13.7725 11.7 13.9272 11.9695 14.1897 12.0398C14.2319 12.0516 14.2741 12.0562 14.3163 12.0562C14.5342 12.0562 14.7335 11.9109 14.792 11.6906L16.0577 6.97031C16.1819 6.50859 16.6038 6.1875 17.0795 6.1875C17.171 6.1875 17.2647 6.19922 17.3561 6.225C17.921 6.375 18.2585 6.95859 18.1061 7.52344Z" fill="#111111"/>
</svg>
