<svg width="20" height="20" viewBox="0 0 20 20" fill="none" xmlns="http://www.w3.org/2000/svg">
<path d="M13.3333 15.0002C13.7754 15.0002 14.1993 15.1758 14.5118 15.4883C14.8244 15.8009 15 16.2248 15 16.6668C15 16.2248 15.1756 15.8009 15.4882 15.4883C15.8007 15.1758 16.2246 15.0002 16.6667 15.0002C16.2246 15.0002 15.8007 14.8246 15.4882 14.512C15.1756 14.1994 15 13.7755 15 13.3335C15 13.7755 14.8244 14.1994 14.5118 14.512C14.1993 14.8246 13.7754 15.0002 13.3333 15.0002ZM13.3333 5.00016C13.7754 5.00016 14.1993 5.17576 14.5118 5.48832C14.8244 5.80088 15 6.2248 15 6.66683C15 6.2248 15.1756 5.80088 15.4882 5.48832C15.8007 5.17576 16.2246 5.00016 16.6667 5.00016C16.2246 5.00016 15.8007 4.82457 15.4882 4.51201C15.1756 4.19945 15 3.77552 15 3.3335C15 3.77552 14.8244 4.19945 14.5118 4.51201C14.1993 4.82457 13.7754 5.00016 13.3333 5.00016ZM7.5 15.0002C7.5 13.6741 8.02678 12.4023 8.96447 11.4646C9.90215 10.5269 11.1739 10.0002 12.5 10.0002C11.1739 10.0002 9.90215 9.47338 8.96447 8.5357C8.02678 7.59801 7.5 6.32625 7.5 5.00016C7.5 6.32625 6.97322 7.59801 6.03553 8.5357C5.09785 9.47338 3.82608 10.0002 2.5 10.0002C3.82608 10.0002 5.09785 10.5269 6.03553 11.4646C6.97322 12.4023 7.5 13.6741 7.5 15.0002Z" stroke="white" stroke-width="1.25" stroke-linecap="round" stroke-linejoin="round"/>
</svg>
