<svg width="20" height="20" viewBox="0 0 20 20" fill="none" xmlns="http://www.w3.org/2000/svg">
<path d="M16.6666 9.16658C16.4628 7.7001 15.7825 6.3413 14.7305 5.2995C13.6785 4.25769 12.3131 3.59068 10.8447 3.40121C9.3763 3.21174 7.88633 3.51032 6.60431 4.25096C5.3223 4.99159 4.31935 6.1332 3.74998 7.49992M3.33331 4.16658V7.49992H6.66665M3.33331 10.8333C3.53711 12.2998 4.21742 13.6586 5.26945 14.7004C6.32147 15.7422 7.68685 16.4092 9.15525 16.5987C10.6237 16.7881 12.1136 16.4896 13.3956 15.7489C14.6777 15.0083 15.6806 13.8667 16.25 12.5M16.6666 15.8333V12.5H13.3333" stroke="#191919" stroke-width="1.5" stroke-linecap="round" stroke-linejoin="round"/>
</svg>
