<svg width="20" height="20" viewBox="0 0 20 20" fill="none" xmlns="http://www.w3.org/2000/svg">
<path d="M16.6667 9.16707C16.4629 7.70059 15.7826 6.34179 14.7306 5.29999C13.6785 4.25818 12.3132 3.59117 10.8448 3.4017C9.37636 3.21223 7.88639 3.51081 6.60438 4.25144C5.32236 4.99208 4.31941 6.13369 3.75004 7.50041M3.33337 4.16707V7.50041H6.66671M3.33337 10.8338C3.53717 12.3003 4.21748 13.6591 5.26951 14.7009C6.32153 15.7427 7.68691 16.4097 9.15531 16.5992C10.6237 16.7886 12.1137 16.49 13.3957 15.7494C14.6777 15.0088 15.6807 13.8672 16.25 12.5004M16.6667 15.8338V12.5004H13.3334" stroke="white" stroke-width="1.25" stroke-linecap="round" stroke-linejoin="round"/>
</svg>
