<svg width="20" height="20" viewBox="0 0 20 20" fill="none" xmlns="http://www.w3.org/2000/svg">
<path d="M3.33331 9.16683V15.8335C3.33331 16.0545 3.42111 16.2665 3.57739 16.4228C3.73367 16.579 3.94563 16.6668 4.16665 16.6668H10.8333M3.33331 5.00016V4.16683C3.33331 3.94582 3.42111 3.73385 3.57739 3.57757C3.73367 3.42129 3.94563 3.3335 4.16665 3.3335H4.99998M9.16665 3.3335H10.8333M15 3.3335H15.8333C16.0543 3.3335 16.2663 3.42129 16.4226 3.57757C16.5788 3.73385 16.6666 3.94582 16.6666 4.16683V5.00016M16.6666 9.16683V10.8335M16.6666 15.0002V15.8335C16.6666 16.0545 16.5788 16.2665 16.4226 16.4228C16.2663 16.579 16.0543 16.6668 15.8333 16.6668H15M3.33331 10.0002H9.16665C9.38766 10.0002 9.59962 10.088 9.7559 10.2442C9.91218 10.4005 9.99998 10.6125 9.99998 10.8335V16.6668" stroke="white" stroke-width="1.25" stroke-linecap="round" stroke-linejoin="round"/>
</svg>
