<svg width="27" height="27" viewBox="0 0 27 27" fill="none" xmlns="http://www.w3.org/2000/svg">
<path d="M25.6744 0.737914C26.0382 1.10173 26.282 1.56933 26.373 2.0757C26.4636 2.58175 26.397 3.10448 26.1827 3.57183L21.6792 13.2137L26.1827 22.8403C26.397 23.3076 26.4636 23.8303 26.373 24.3364C26.282 24.8428 26.0382 25.3104 25.6743 25.6742C25.3105 26.038 24.843 26.2819 24.3365 26.3728C23.8305 26.4635 23.3077 26.3969 22.8404 26.1826L13.2062 21.6866L3.57196 26.1825C3.10464 26.3969 2.58192 26.4635 2.07586 26.3728C1.56947 26.2819 1.10187 26.0381 0.73801 25.6742C0.3742 25.3104 0.130381 24.8428 0.0394473 24.3364C-0.0512033 23.8303 0.0153863 23.3076 0.229714 22.8403L4.73323 13.1984L0.229688 3.57184C0.0153601 3.10451 -0.0512296 2.58179 0.0394188 2.07574C0.130407 1.56929 0.374224 1.1017 0.738035 0.737887C1.10185 0.374075 1.56944 0.130258 2.07589 0.0392696C2.58194 -0.0513788 3.10466 0.0152102 3.57199 0.229538L13.2138 4.73313L22.8404 0.229577C23.3078 0.0152283 23.8305 -0.0513712 24.3366 0.0392823C24.8429 0.130247 25.3105 0.374051 25.6744 0.737914Z" fill="url(#paint0_linear_345_4589)"/>
<defs>
<linearGradient id="paint0_linear_345_4589" x1="38.1425" y1="13.206" x2="-7.49687" y2="-0.533648" gradientUnits="userSpaceOnUse">
<stop stop-color="#9BE1F6"/>
<stop offset="0.5" stop-color="#847DFF"/>
<stop offset="1" stop-color="#9BE1F6"/>
</linearGradient>
</defs>
</svg>
