<svg width="24" height="24" viewBox="0 0 24 24" fill="none" xmlns="http://www.w3.org/2000/svg">
<path d="M4.80772 6.73081H5.76926C6.27929 6.73081 6.76843 6.5282 7.12908 6.16755C7.48973 5.8069 7.69234 5.31776 7.69234 4.80773C7.69234 4.55271 7.79364 4.30814 7.97396 4.12782C8.15429 3.9475 8.39886 3.84619 8.65387 3.84619H14.4231C14.6781 3.84619 14.9227 3.9475 15.103 4.12782C15.2833 4.30814 15.3846 4.55271 15.3846 4.80773C15.3846 5.31776 15.5873 5.8069 15.9479 6.16755C16.3085 6.5282 16.7977 6.73081 17.3077 6.73081H18.2693C18.7793 6.73081 19.2684 6.93342 19.6291 7.29406C19.9897 7.65471 20.1923 8.14385 20.1923 8.65388V17.3077C20.1923 17.8178 19.9897 18.3069 19.6291 18.6675C19.2684 19.0282 18.7793 19.2308 18.2693 19.2308H4.80772C4.29769 19.2308 3.80855 19.0282 3.4479 18.6675C3.08725 18.3069 2.88464 17.8178 2.88464 17.3077V8.65388C2.88464 8.14385 3.08725 7.65471 3.4479 7.29406C3.80855 6.93342 4.29769 6.73081 4.80772 6.73081Z" stroke="#AE89FF" stroke-width="1.44231" stroke-linecap="round" stroke-linejoin="round"/>
<path d="M8.65387 12.5C8.65387 13.2651 8.95779 13.9988 9.49876 14.5398C10.0397 15.0807 10.7734 15.3847 11.5385 15.3847C12.3035 15.3847 13.0373 15.0807 13.5782 14.5398C14.1192 13.9988 14.4231 13.2651 14.4231 12.5C14.4231 11.735 14.1192 11.0013 13.5782 10.4603C13.0373 9.91934 12.3035 9.61542 11.5385 9.61542C10.7734 9.61542 10.0397 9.91934 9.49876 10.4603C8.95779 11.0013 8.65387 11.735 8.65387 12.5Z" stroke="#AE89FF" stroke-width="1.44231" stroke-linecap="round" stroke-linejoin="round"/>
</svg>
