<svg width="123" height="116" viewBox="0 0 123 116" fill="none" xmlns="http://www.w3.org/2000/svg">
<path d="M29.7871 1V13.4004H4.1875V1H29.7871Z" fill="#5291F4" stroke="#3B87FF" stroke-width="2"/>
<mask id="path-2-outside-1_345_1686" maskUnits="userSpaceOnUse" x="7.1875" y="1" width="22" height="14" fill="black">
<rect fill="white" x="7.1875" y="1" width="22" height="14"/>
<path d="M12.4887 4.2376L13.1943 4.33C13.1439 4.4644 13.0851 4.5904 13.0263 4.708H15.1851V5.2456C14.9751 5.6572 14.6475 6.0184 14.2107 6.3376C14.7315 6.5728 15.3195 6.7576 15.9831 6.9088L15.5715 7.5052C14.7903 7.2952 14.1183 7.0432 13.5471 6.7408C12.9087 7.06 12.1275 7.3204 11.2035 7.5304L10.8591 6.892C11.6655 6.7576 12.3543 6.5812 12.9087 6.346C12.6399 6.1612 12.4047 5.968 12.2031 5.7664C11.9763 5.968 11.7159 6.1612 11.4303 6.346L10.9935 5.7664C11.7327 5.3464 12.2283 4.834 12.4887 4.2376ZM13.5639 6.0184C13.9083 5.8 14.1855 5.5564 14.3871 5.2876H12.6483C12.6315 5.3044 12.6147 5.3128 12.6147 5.3296C12.8835 5.5816 13.2027 5.8168 13.5639 6.0184ZM11.9343 8.278C13.0431 8.4796 14.1015 8.7568 15.1263 9.1264L14.8659 9.7648C13.8243 9.3868 12.7491 9.0928 11.6319 8.8744L11.9343 8.278ZM12.7911 7.144C13.4631 7.3456 14.0847 7.5808 14.6391 7.858L14.2695 8.4292C13.6731 8.1016 13.0599 7.8496 12.4299 7.6648L12.7911 7.144ZM16.8987 3.4228V10.8652H16.1175V10.5712H10.6575V10.8652H9.8763V3.4228H16.8987ZM10.6575 9.8656H16.1175V4.1284H10.6575V9.8656ZM20.2839 6.2788H24.8955V6.9676H20.2839V6.2788ZM19.6959 7.6396H25.4415V8.362H22.2663C21.8127 9.0676 21.4095 9.5968 21.0567 9.9496C22.0227 9.874 22.9803 9.7648 23.9379 9.6136C23.7531 9.3784 23.5515 9.1432 23.3415 8.908L23.9295 8.5468C24.6015 9.2524 25.1139 9.874 25.4751 10.4032L24.8367 10.8484C24.7107 10.6468 24.5679 10.4368 24.4167 10.2352C23.0979 10.4116 21.6615 10.5544 20.1075 10.6552L19.9395 9.9916C20.0067 9.9664 20.0571 9.9412 20.0991 9.916C20.4351 9.7144 20.8719 9.202 21.4095 8.362H19.6959V7.6396ZM24.2823 4.1284H19.5615V4.918H24.2823V4.1284ZM19.5615 5.6404V6.2536C19.5531 8.0176 19.2087 9.538 18.5283 10.8148L17.9487 10.294C18.4863 9.2524 18.7635 7.9 18.7719 6.2536V3.3976H25.0719V5.6404H19.5615Z"/>
</mask>
<path d="M12.4887 4.2376L13.1943 4.33C13.1439 4.4644 13.0851 4.5904 13.0263 4.708H15.1851V5.2456C14.9751 5.6572 14.6475 6.0184 14.2107 6.3376C14.7315 6.5728 15.3195 6.7576 15.9831 6.9088L15.5715 7.5052C14.7903 7.2952 14.1183 7.0432 13.5471 6.7408C12.9087 7.06 12.1275 7.3204 11.2035 7.5304L10.8591 6.892C11.6655 6.7576 12.3543 6.5812 12.9087 6.346C12.6399 6.1612 12.4047 5.968 12.2031 5.7664C11.9763 5.968 11.7159 6.1612 11.4303 6.346L10.9935 5.7664C11.7327 5.3464 12.2283 4.834 12.4887 4.2376ZM13.5639 6.0184C13.9083 5.8 14.1855 5.5564 14.3871 5.2876H12.6483C12.6315 5.3044 12.6147 5.3128 12.6147 5.3296C12.8835 5.5816 13.2027 5.8168 13.5639 6.0184ZM11.9343 8.278C13.0431 8.4796 14.1015 8.7568 15.1263 9.1264L14.8659 9.7648C13.8243 9.3868 12.7491 9.0928 11.6319 8.8744L11.9343 8.278ZM12.7911 7.144C13.4631 7.3456 14.0847 7.5808 14.6391 7.858L14.2695 8.4292C13.6731 8.1016 13.0599 7.8496 12.4299 7.6648L12.7911 7.144ZM16.8987 3.4228V10.8652H16.1175V10.5712H10.6575V10.8652H9.8763V3.4228H16.8987ZM10.6575 9.8656H16.1175V4.1284H10.6575V9.8656ZM20.2839 6.2788H24.8955V6.9676H20.2839V6.2788ZM19.6959 7.6396H25.4415V8.362H22.2663C21.8127 9.0676 21.4095 9.5968 21.0567 9.9496C22.0227 9.874 22.9803 9.7648 23.9379 9.6136C23.7531 9.3784 23.5515 9.1432 23.3415 8.908L23.9295 8.5468C24.6015 9.2524 25.1139 9.874 25.4751 10.4032L24.8367 10.8484C24.7107 10.6468 24.5679 10.4368 24.4167 10.2352C23.0979 10.4116 21.6615 10.5544 20.1075 10.6552L19.9395 9.9916C20.0067 9.9664 20.0571 9.9412 20.0991 9.916C20.4351 9.7144 20.8719 9.202 21.4095 8.362H19.6959V7.6396ZM24.2823 4.1284H19.5615V4.918H24.2823V4.1284ZM19.5615 5.6404V6.2536C19.5531 8.0176 19.2087 9.538 18.5283 10.8148L17.9487 10.294C18.4863 9.2524 18.7635 7.9 18.7719 6.2536V3.3976H25.0719V5.6404H19.5615Z" fill="white"/>
<path d="M12.4887 4.2376L12.7484 2.25453L11.2575 2.05929L10.6558 3.43732L12.4887 4.2376ZM13.1943 4.33L15.067 5.03225L15.9513 2.67396L13.454 2.34693L13.1943 4.33ZM13.0263 4.708L11.2374 3.81357L9.79023 6.708H13.0263V4.708ZM15.1851 4.708H17.1851V2.708H15.1851V4.708ZM15.1851 5.2456L16.9666 6.15454L17.1851 5.72633V5.2456H15.1851ZM14.2107 6.3376L13.0307 4.72282L10.2597 6.74777L13.3875 8.16034L14.2107 6.3376ZM15.9831 6.9088L17.6292 8.04481L19.3063 5.61472L16.4274 4.95878L15.9831 6.9088ZM15.5715 7.5052L15.0523 9.43663L16.4157 9.80313L17.2176 8.64121L15.5715 7.5052ZM13.5471 6.7408L14.4829 4.97322L13.5733 4.49166L12.6527 4.95194L13.5471 6.7408ZM11.2035 7.5304L9.4433 8.47998L10.1648 9.81746L11.6467 9.48067L11.2035 7.5304ZM10.8591 6.892L10.5303 4.91921L7.7705 5.37918L9.0989 7.84158L10.8591 6.892ZM12.9087 6.346L13.6898 8.18716L17.046 6.76332L14.0418 4.69792L12.9087 6.346ZM12.2031 5.7664L13.6173 4.35219L12.2838 3.01872L10.8744 4.27158L12.2031 5.7664ZM11.4303 6.346L9.83308 7.5497L10.9536 9.0366L12.5168 8.02514L11.4303 6.346ZM10.9935 5.7664L10.0055 4.02749L8.02618 5.15209L9.39628 6.9701L10.9935 5.7664ZM13.5639 6.0184L12.5892 7.7648L13.6292 8.34525L14.635 7.70742L13.5639 6.0184ZM14.3871 5.2876L15.9871 6.4876L18.3871 3.2876H14.3871V5.2876ZM12.6483 5.2876V3.2876H11.8199L11.2341 3.8734L12.6483 5.2876ZM12.6147 5.3296H10.6147V6.19606L11.2468 6.78867L12.6147 5.3296ZM11.9343 8.278L12.2921 6.31026L10.8249 6.0435L10.1505 7.37354L11.9343 8.278ZM15.1263 9.1264L16.9782 9.88177L17.7653 7.95207L15.8048 7.24502L15.1263 9.1264ZM14.8659 9.7648L14.1836 11.6448L15.9914 12.3009L16.7178 10.5202L14.8659 9.7648ZM11.6319 8.8744L9.8481 7.96994L8.65163 10.3296L11.2482 10.8372L11.6319 8.8744ZM12.7911 7.144L13.3658 5.22835L11.9751 4.81114L11.1477 6.0042L12.7911 7.144ZM14.6391 7.858L16.3182 8.9445L17.5322 7.06846L15.5335 6.06914L14.6391 7.858ZM14.2695 8.4292L13.3066 10.1822L14.9377 11.0781L15.9486 9.5157L14.2695 8.4292ZM12.4299 7.6648L10.7865 6.525L9.20625 8.80346L11.867 9.58394L12.4299 7.6648ZM16.8987 3.4228H18.8987V1.4228H16.8987V3.4228ZM16.8987 10.8652V12.8652H18.8987V10.8652H16.8987ZM16.1175 10.8652H14.1175V12.8652H16.1175V10.8652ZM16.1175 10.5712H18.1175V8.5712H16.1175V10.5712ZM10.6575 10.5712V8.5712H8.6575V10.5712H10.6575ZM10.6575 10.8652V12.8652H12.6575V10.8652H10.6575ZM9.8763 10.8652H7.8763V12.8652H9.8763V10.8652ZM9.8763 3.4228V1.4228H7.8763V3.4228H9.8763ZM10.6575 9.8656H8.6575V11.8656H10.6575V9.8656ZM16.1175 9.8656V11.8656H18.1175V9.8656H16.1175ZM16.1175 4.1284H18.1175V2.1284H16.1175V4.1284ZM10.6575 4.1284V2.1284H8.6575V4.1284H10.6575ZM12.4887 4.2376L12.229 6.22067L12.9346 6.31307L13.1943 4.33L13.454 2.34693L12.7484 2.25453L12.4887 4.2376ZM13.1943 4.33L11.3216 3.62775C11.3055 3.67078 11.2804 3.72763 11.2374 3.81357L13.0263 4.708L14.8152 5.60243C14.8898 5.45317 14.9823 5.25801 15.067 5.03225L13.1943 4.33ZM13.0263 4.708V6.708H15.1851V4.708V2.708H13.0263V4.708ZM15.1851 4.708H13.1851V5.2456H15.1851H17.1851V4.708H15.1851ZM15.1851 5.2456L13.4036 4.33666C13.3653 4.41164 13.2722 4.54628 13.0307 4.72282L14.2107 6.3376L15.3907 7.95238C16.0228 7.49052 16.5849 6.90276 16.9666 6.15454L15.1851 5.2456ZM14.2107 6.3376L13.3875 8.16034C14.0622 8.46502 14.7845 8.68697 15.5388 8.85882L15.9831 6.9088L16.4274 4.95878C15.8545 4.82823 15.4008 4.68058 15.0339 4.51486L14.2107 6.3376ZM15.9831 6.9088L14.337 5.77279L13.9254 6.36919L15.5715 7.5052L17.2176 8.64121L17.6292 8.04481L15.9831 6.9088ZM15.5715 7.5052L16.0907 5.57377C15.4147 5.39205 14.8901 5.1888 14.4829 4.97322L13.5471 6.7408L12.6113 8.50838C13.3465 8.8976 14.1659 9.19835 15.0523 9.43663L15.5715 7.5052ZM13.5471 6.7408L12.6527 4.95194C12.2005 5.17803 11.5828 5.39319 10.7603 5.58013L11.2035 7.5304L11.6467 9.48067C12.6722 9.24761 13.6169 8.94197 14.4415 8.52965L13.5471 6.7408ZM11.2035 7.5304L12.9637 6.58082L12.6193 5.94242L10.8591 6.892L9.0989 7.84158L9.4433 8.47998L11.2035 7.5304ZM10.8591 6.892L11.1879 8.86479C12.0757 8.71682 12.9346 8.50757 13.6898 8.18716L12.9087 6.346L12.1276 4.50484C11.774 4.65483 11.2553 4.79838 10.5303 4.91921L10.8591 6.892ZM12.9087 6.346L14.0418 4.69792C13.8595 4.57265 13.7212 4.45611 13.6173 4.35219L12.2031 5.7664L10.7889 7.18061C11.0882 7.47989 11.4203 7.74975 11.7756 7.99408L12.9087 6.346ZM12.2031 5.7664L10.8744 4.27158C10.7392 4.39177 10.5637 4.52458 10.3438 4.66686L11.4303 6.346L12.5168 8.02514C12.8681 7.79781 13.2134 7.54423 13.5318 7.26122L12.2031 5.7664ZM11.4303 6.346L13.0275 5.1423L12.5907 4.5627L10.9935 5.7664L9.39628 6.9701L9.83308 7.5497L11.4303 6.346ZM10.9935 5.7664L11.9815 7.50531C12.9927 6.93077 13.8461 6.12703 14.3216 5.03788L12.4887 4.2376L10.6558 3.43732C10.6105 3.54097 10.4727 3.76202 10.0055 4.02749L10.9935 5.7664ZM13.5639 6.0184L14.635 7.70742C15.1318 7.39238 15.6074 6.99392 15.9871 6.4876L14.3871 5.2876L12.7871 4.0876C12.7636 4.11888 12.6848 4.20762 12.4928 4.32938L13.5639 6.0184ZM14.3871 5.2876V3.2876H12.6483V5.2876V7.2876H14.3871V5.2876ZM12.6483 5.2876L11.2341 3.8734C11.2612 3.84623 11.2844 3.82478 11.3002 3.81047C11.3081 3.80331 11.3146 3.79755 11.3189 3.79377C11.3231 3.79015 11.3261 3.78752 11.3261 3.78751C11.3442 3.77183 11.2764 3.82893 11.211 3.89438C11.0611 4.04423 10.6147 4.53471 10.6147 5.3296H12.6147H14.6147C14.6147 5.68427 14.5198 6.0041 14.3785 6.26652C14.2511 6.50321 14.1049 6.6573 14.0394 6.72282C13.9803 6.78197 13.9199 6.83277 13.9458 6.81026C13.9511 6.80572 14.0031 6.7612 14.0625 6.7018L12.6483 5.2876ZM12.6147 5.3296L11.2468 6.78867C11.6375 7.15489 12.0893 7.48581 12.5892 7.7648L13.5639 6.0184L14.5386 4.272C14.3161 4.14779 14.1295 4.00831 13.9826 3.87053L12.6147 5.3296ZM11.9343 8.278L11.5765 10.2457C12.5873 10.4295 13.5374 10.6795 14.4478 11.0078L15.1263 9.1264L15.8048 7.24502C14.6656 6.83414 13.4989 6.52968 12.2921 6.31026L11.9343 8.278ZM15.1263 9.1264L13.2744 8.37103L13.014 9.00943L14.8659 9.7648L16.7178 10.5202L16.9782 9.88177L15.1263 9.1264ZM14.8659 9.7648L15.5482 7.88477C14.4035 7.46937 13.228 7.14857 12.0156 6.91155L11.6319 8.8744L11.2482 10.8372C12.2702 11.037 13.2451 11.3042 14.1836 11.6448L14.8659 9.7648ZM11.6319 8.8744L13.4157 9.77886L13.7181 9.18246L11.9343 8.278L10.1505 7.37354L9.8481 7.96994L11.6319 8.8744ZM12.7911 7.144L12.2164 9.05965C12.8072 9.2369 13.3168 9.43294 13.7447 9.64685L14.6391 7.858L15.5335 6.06914C14.8526 5.72866 14.119 5.45429 13.3658 5.22835L12.7911 7.144ZM14.6391 7.858L12.96 6.7715L12.5904 7.3427L14.2695 8.4292L15.9486 9.5157L16.3182 8.9445L14.6391 7.858ZM14.2695 8.4292L15.2324 6.67625C14.5068 6.27769 13.7593 5.97048 12.9928 5.74566L12.4299 7.6648L11.867 9.58394C12.3605 9.72872 12.8394 9.92551 13.3066 10.1822L14.2695 8.4292ZM12.4299 7.6648L14.0733 8.8046L14.4345 8.2838L12.7911 7.144L11.1477 6.0042L10.7865 6.525L12.4299 7.6648ZM16.8987 3.4228H14.8987V10.8652H16.8987H18.8987V3.4228H16.8987ZM16.8987 10.8652V8.8652H16.1175V10.8652V12.8652H16.8987V10.8652ZM16.1175 10.8652H18.1175V10.5712H16.1175H14.1175V10.8652H16.1175ZM16.1175 10.5712V8.5712H10.6575V10.5712V12.5712H16.1175V10.5712ZM10.6575 10.5712H8.6575V10.8652H10.6575H12.6575V10.5712H10.6575ZM10.6575 10.8652V8.8652H9.8763V10.8652V12.8652H10.6575V10.8652ZM9.8763 10.8652H11.8763V3.4228H9.8763H7.8763V10.8652H9.8763ZM9.8763 3.4228V5.4228H16.8987V3.4228V1.4228H9.8763V3.4228ZM10.6575 9.8656V11.8656H16.1175V9.8656V7.8656H10.6575V9.8656ZM16.1175 9.8656H18.1175V4.1284H16.1175H14.1175V9.8656H16.1175ZM16.1175 4.1284V2.1284H10.6575V4.1284V6.1284H16.1175V4.1284ZM10.6575 4.1284H8.6575V9.8656H10.6575H12.6575V4.1284H10.6575ZM20.2839 6.2788V4.2788H18.2839V6.2788H20.2839ZM24.8955 6.2788H26.8955V4.2788H24.8955V6.2788ZM24.8955 6.9676V8.9676H26.8955V6.9676H24.8955ZM20.2839 6.9676H18.2839V8.9676H20.2839V6.9676ZM19.6959 7.6396V5.6396H17.6959V7.6396H19.6959ZM25.4415 7.6396H27.4415V5.6396H25.4415V7.6396ZM25.4415 8.362V10.362H27.4415V8.362H25.4415ZM22.2663 8.362V6.362H21.1744L20.5839 7.28048L22.2663 8.362ZM21.0567 9.9496L19.6425 8.53539L15.8117 12.3662L21.2127 11.9435L21.0567 9.9496ZM23.9379 9.6136L24.2498 11.5891L27.616 11.0576L25.5105 8.37796L23.9379 9.6136ZM23.3415 8.908L22.2947 7.20385L20.2566 8.45582L21.8496 10.24L23.3415 8.908ZM23.9295 8.5468L25.3778 7.16749L24.2617 5.99556L22.8827 6.84265L23.9295 8.5468ZM25.4751 10.4032L26.6191 12.0437L28.2432 10.9111L27.127 9.27571L25.4751 10.4032ZM24.8367 10.8484L23.1407 11.9084L24.2555 13.692L25.9807 12.4889L24.8367 10.8484ZM24.4167 10.2352L26.0167 9.0352L25.3134 8.09745L24.1515 8.25285L24.4167 10.2352ZM20.1075 10.6552L18.1687 11.146L18.5769 12.7587L20.237 12.651L20.1075 10.6552ZM19.9395 9.9916L19.2373 8.11894L17.5614 8.74738L18.0007 10.4824L19.9395 9.9916ZM20.0991 9.916L21.1281 11.631L21.1281 11.631L20.0991 9.916ZM21.4095 8.362L23.094 9.44011L25.064 6.362H21.4095V8.362ZM19.6959 8.362H17.6959V10.362H19.6959V8.362ZM24.2823 4.1284H26.2823V2.1284H24.2823V4.1284ZM19.5615 4.1284V2.1284H17.5615V4.1284H19.5615ZM19.5615 4.918H17.5615V6.918H19.5615V4.918ZM24.2823 4.918V6.918H26.2823V4.918H24.2823ZM19.5615 5.6404V3.6404H17.5615V5.6404H19.5615ZM19.5615 6.2536L21.5615 6.26312V6.2536H19.5615ZM18.5283 10.8148L17.1916 12.3025L19.0919 14.01L20.2933 11.7554L18.5283 10.8148ZM17.9487 10.294L16.1715 9.37671L15.463 10.7493L16.612 11.7817L17.9487 10.294ZM18.7719 6.2536L20.7719 6.2638V6.2536H18.7719ZM18.7719 3.3976V1.3976H16.7719V3.3976H18.7719ZM25.0719 3.3976H27.0719V1.3976H25.0719V3.3976ZM25.0719 5.6404V7.6404H27.0719V5.6404H25.0719ZM20.2839 6.2788V8.2788H24.8955V6.2788V4.2788H20.2839V6.2788ZM24.8955 6.2788H22.8955V6.9676H24.8955H26.8955V6.2788H24.8955ZM24.8955 6.9676V4.9676H20.2839V6.9676V8.9676H24.8955V6.9676ZM20.2839 6.9676H22.2839V6.2788H20.2839H18.2839V6.9676H20.2839ZM19.6959 7.6396V9.6396H25.4415V7.6396V5.6396H19.6959V7.6396ZM25.4415 7.6396H23.4415V8.362H25.4415H27.4415V7.6396H25.4415ZM25.4415 8.362V6.362H22.2663V8.362V10.362H25.4415V8.362ZM22.2663 8.362L20.5839 7.28048C20.163 7.93531 19.8491 8.32877 19.6425 8.53539L21.0567 9.9496L22.4709 11.3638C22.9699 10.8648 23.4624 10.1999 23.9487 9.44351L22.2663 8.362ZM21.0567 9.9496L21.2127 11.9435C22.2258 11.8642 23.2357 11.7493 24.2498 11.5891L23.9379 9.6136L23.626 7.63807C22.7249 7.78034 21.8196 7.88378 20.9007 7.9557L21.0567 9.9496ZM23.9379 9.6136L25.5105 8.37796C25.2908 8.09833 25.0595 7.82926 24.8334 7.57597L23.3415 8.908L21.8496 10.24C22.0435 10.4571 22.2154 10.6585 22.3653 10.8492L23.9379 9.6136ZM23.3415 8.908L24.3883 10.6122L24.9763 10.251L23.9295 8.5468L22.8827 6.84265L22.2947 7.20385L23.3415 8.908ZM23.9295 8.5468L22.4812 9.92611C23.1048 10.5809 23.5411 11.1174 23.8232 11.5307L25.4751 10.4032L27.127 9.27571C26.6867 8.63058 26.0982 7.92395 25.3778 7.16749L23.9295 8.5468ZM25.4751 10.4032L24.3311 8.76271L23.6927 9.20791L24.8367 10.8484L25.9807 12.4889L26.6191 12.0437L25.4751 10.4032ZM24.8367 10.8484L26.5327 9.7884C26.3787 9.54194 26.204 9.28496 26.0167 9.0352L24.4167 10.2352L22.8167 11.4352C22.9318 11.5886 23.0427 11.7517 23.1407 11.9084L24.8367 10.8484ZM24.4167 10.2352L24.1515 8.25285C22.881 8.4228 21.49 8.56132 19.978 8.65939L20.1075 10.6552L20.237 12.651C21.833 12.5475 23.3148 12.4004 24.6819 12.2175L24.4167 10.2352ZM20.1075 10.6552L22.0463 10.1644L21.8783 9.50076L19.9395 9.9916L18.0007 10.4824L18.1687 11.146L20.1075 10.6552ZM19.9395 9.9916L20.6417 11.8643C20.8172 11.7985 20.9775 11.7214 21.1281 11.631L20.0991 9.916L19.0701 8.20101C19.1007 8.18263 19.1322 8.1657 19.1633 8.15075C19.1938 8.13609 19.2192 8.12573 19.2373 8.11894L19.9395 9.9916ZM20.0991 9.916L21.1281 11.631C21.5704 11.3656 21.9299 10.9962 22.2059 10.6697C22.5003 10.3217 22.7964 9.90516 23.094 9.44011L21.4095 8.362L19.725 7.28389C19.485 7.65884 19.294 7.91855 19.1515 8.08707C18.9907 8.27716 18.9638 8.26483 19.0701 8.20101L20.0991 9.916ZM21.4095 8.362V6.362H19.6959V8.362V10.362H21.4095V8.362ZM19.6959 8.362H21.6959V7.6396H19.6959H17.6959V8.362H19.6959ZM24.2823 4.1284V2.1284H19.5615V4.1284V6.1284H24.2823V4.1284ZM19.5615 4.1284H17.5615V4.918H19.5615H21.5615V4.1284H19.5615ZM19.5615 4.918V6.918H24.2823V4.918V2.918H19.5615V4.918ZM24.2823 4.918H26.2823V4.1284H24.2823H22.2823V4.918H24.2823ZM19.5615 5.6404H17.5615V6.2536H19.5615H21.5615V5.6404H19.5615ZM19.5615 6.2536L17.5615 6.24408C17.5543 7.75366 17.2609 8.94038 16.7633 9.87423L18.5283 10.8148L20.2933 11.7554C21.1565 10.1356 21.5519 8.28154 21.5615 6.26312L19.5615 6.2536ZM18.5283 10.8148L19.865 9.32714L19.2854 8.80634L17.9487 10.294L16.612 11.7817L17.1916 12.3025L18.5283 10.8148ZM17.9487 10.294L19.7259 11.2113C20.4539 9.80083 20.7625 8.10871 20.7719 6.2638L18.7719 6.2536L16.7719 6.2434C16.7645 7.69129 16.5187 8.70397 16.1715 9.37671L17.9487 10.294ZM18.7719 6.2536H20.7719V3.3976H18.7719H16.7719V6.2536H18.7719ZM18.7719 3.3976V5.3976H25.0719V3.3976V1.3976H18.7719V3.3976ZM25.0719 3.3976H23.0719V5.6404H25.0719H27.0719V3.3976H25.0719ZM25.0719 5.6404V3.6404H19.5615V5.6404V7.6404H25.0719V5.6404Z" fill="#3B87FF" mask="url(#path-2-outside-1_345_1686)"/>
<path d="M118.523 14.7021V111.88H3.67188V14.7021H118.523Z" stroke="#3B87FF" stroke-width="2"/>
<path d="M6.54833 63.0525C6.54833 63.7882 6.25605 64.4939 5.73579 65.0141C5.21554 65.5344 4.50992 65.8266 3.77416 65.8266C3.03841 65.8266 2.33279 65.5344 1.81253 65.0141C1.29228 64.4939 1 63.7882 1 63.0525C1 62.3167 1.29228 61.6111 1.81253 61.0909C2.33279 60.5706 3.03841 60.2783 3.77416 60.2783C4.50992 60.2783 5.21554 60.5706 5.73579 61.0909C6.25605 61.6111 6.54833 62.3167 6.54833 63.0525Z" fill="white" stroke="#3B87FF" stroke-width="2"/>
<path d="M6.54833 111.024C6.54833 111.76 6.25605 112.466 5.73579 112.986C5.21554 113.506 4.50992 113.798 3.77416 113.798C3.03841 113.798 2.33279 113.506 1.81253 112.986C1.29228 112.466 1 111.76 1 111.024C1 110.288 1.29228 109.583 1.81253 109.063C2.33279 108.542 3.03841 108.25 3.77416 108.25C4.50992 108.25 5.21554 108.542 5.73579 109.063C6.25605 109.583 6.54833 110.288 6.54833 111.024Z" fill="white" stroke="#3B87FF" stroke-width="2"/>
<path d="M64.1499 112.134C64.1499 112.869 63.8576 113.575 63.3374 114.095C62.8171 114.615 62.1115 114.908 61.3757 114.908C60.64 114.908 59.9344 114.615 59.4141 114.095C58.8938 113.575 58.6016 112.869 58.6016 112.134C58.6016 111.398 58.8938 110.692 59.4141 110.172C59.9344 109.652 60.64 109.359 61.3757 109.359C62.1115 109.359 62.8171 109.652 63.3374 110.172C63.8576 110.692 64.1499 111.398 64.1499 112.134Z" fill="white" stroke="#3B87FF" stroke-width="2"/>
<path d="M121.251 111.58C121.251 112.316 120.959 113.021 120.439 113.541C119.919 114.062 119.213 114.354 118.477 114.354C117.742 114.354 117.036 114.062 116.516 113.541C115.995 113.021 115.703 112.316 115.703 111.58C115.703 110.844 115.995 110.138 116.516 109.618C117.036 109.098 117.742 108.806 118.477 108.806C119.213 108.806 119.919 109.098 120.439 109.618C120.959 110.138 121.251 110.844 121.251 111.58Z" fill="white" stroke="#3B87FF" stroke-width="2"/>
<path d="M121.251 63.0525C121.251 63.7882 120.959 64.4939 120.439 65.0141C119.919 65.5344 119.213 65.8266 118.477 65.8266C117.742 65.8266 117.036 65.5344 116.516 65.0141C115.995 64.4939 115.703 63.7882 115.703 63.0525C115.703 62.3167 115.995 61.6111 116.516 61.0909C117.036 60.5706 117.742 60.2783 118.477 60.2783C119.213 60.2783 119.919 60.5706 120.439 61.0909C120.959 61.6111 121.251 62.3167 121.251 63.0525Z" fill="white" stroke="#3B87FF" stroke-width="2"/>
<path d="M121.251 14.783C121.251 15.5187 120.959 16.2243 120.439 16.7446C119.919 17.2648 119.213 17.5571 118.477 17.5571C117.742 17.5571 117.036 17.2648 116.516 16.7446C115.995 16.2243 115.703 15.5187 115.703 14.783C115.703 14.0472 115.995 13.3416 116.516 12.8213C117.036 12.3011 117.742 12.0088 118.477 12.0088C119.213 12.0088 119.919 12.3011 120.439 12.8213C120.959 13.3416 121.251 14.0472 121.251 14.783Z" fill="white" stroke="#3B87FF" stroke-width="2"/>
<path d="M62.4468 14.783C62.4468 15.5187 62.1545 16.2243 61.6342 16.7446C61.114 17.2648 60.4084 17.5571 59.6726 17.5571C58.9368 17.5571 58.2312 17.2648 57.711 16.7446C57.1907 16.2243 56.8984 15.5187 56.8984 14.783C56.8984 14.0472 57.1907 13.3416 57.711 12.8213C58.2312 12.3011 58.9368 12.0088 59.6726 12.0088C60.4084 12.0088 61.114 12.3011 61.6342 12.8213C62.1545 13.3416 62.4468 14.0472 62.4468 14.783Z" fill="white" stroke="#3B87FF" stroke-width="2"/>
<path d="M6.54833 14.783C6.54833 15.5187 6.25605 16.2243 5.73579 16.7446C5.21554 17.2648 4.50992 17.5571 3.77416 17.5571C3.03841 17.5571 2.33279 17.2648 1.81253 16.7446C1.29228 16.2243 1 15.5187 1 14.783C1 14.0472 1.29228 13.3416 1.81253 12.8213C2.33279 12.3011 3.03841 12.0088 3.77416 12.0088C4.50992 12.0088 5.21554 12.3011 5.73579 12.8213C6.25605 13.3416 6.54833 14.0472 6.54833 14.783Z" fill="white" stroke="#3B87FF" stroke-width="2"/>
</svg>
