<svg width="20" height="20" viewBox="0 0 20 20" fill="none" xmlns="http://www.w3.org/2000/svg">
<g clip-path="url(#clip0_345_4516)">
<path d="M3.28889 9.86666C3.28889 10.0847 3.37552 10.2939 3.52972 10.4481C3.68391 10.6023 3.89305 10.6889 4.11112 10.6889C4.32918 10.6889 4.53832 10.6023 4.69252 10.4481C4.84671 10.2939 4.93334 10.0847 4.93334 9.86666C4.93334 9.64859 4.84671 9.43945 4.69252 9.28526C4.53832 9.13106 4.32918 9.04443 4.11112 9.04443C3.89305 9.04443 3.68391 9.13106 3.52972 9.28526C3.37552 9.43945 3.28889 9.64859 3.28889 9.86666Z" stroke="white" stroke-width="1.64444" stroke-linecap="round" stroke-linejoin="round"/>
<path d="M9.04445 9.86666C9.04445 10.0847 9.13108 10.2939 9.28527 10.4481C9.43947 10.6023 9.6486 10.6889 9.86667 10.6889C10.0847 10.6889 10.2939 10.6023 10.4481 10.4481C10.6023 10.2939 10.6889 10.0847 10.6889 9.86666C10.6889 9.64859 10.6023 9.43945 10.4481 9.28526C10.2939 9.13106 10.0847 9.04443 9.86667 9.04443C9.6486 9.04443 9.43947 9.13106 9.28527 9.28526C9.13108 9.43945 9.04445 9.64859 9.04445 9.86666Z" stroke="white" stroke-width="1.64444" stroke-linecap="round" stroke-linejoin="round"/>
<path d="M14.8 9.86666C14.8 10.0847 14.8866 10.2939 15.0408 10.4481C15.195 10.6023 15.4042 10.6889 15.6222 10.6889C15.8403 10.6889 16.0494 10.6023 16.2036 10.4481C16.3578 10.2939 16.4444 10.0847 16.4444 9.86666C16.4444 9.64859 16.3578 9.43945 16.2036 9.28526C16.0494 9.13106 15.8403 9.04443 15.6222 9.04443C15.4042 9.04443 15.195 9.13106 15.0408 9.28526C14.8866 9.43945 14.8 9.64859 14.8 9.86666Z" stroke="white" stroke-width="1.64444" stroke-linecap="round" stroke-linejoin="round"/>
</g>
<defs>
<clipPath id="clip0_345_4516">
<rect width="19.7333" height="19.7333" fill="white"/>
</clipPath>
</defs>
</svg>
