<svg width="24" height="24" viewBox="0 0 24 24" fill="none" xmlns="http://www.w3.org/2000/svg">
<g clip-path="url(#clip0_345_4415)">
<path d="M4.79633 3.83716H8.63336L11.5111 6.71494H18.226C18.7348 6.71494 19.2228 6.91706 19.5826 7.27686C19.9423 7.63665 20.1445 8.12463 20.1445 8.63345V16.3075C20.1445 16.8164 19.9423 17.3043 19.5826 17.6641C19.2228 18.0239 18.7348 18.226 18.226 18.226H4.79633C4.2875 18.226 3.79952 18.0239 3.43973 17.6641C3.07994 17.3043 2.87781 16.8164 2.87781 16.3075V5.75568C2.87781 5.24685 3.07994 4.75887 3.43973 4.39908C3.79952 4.03929 4.2875 3.83716 4.79633 3.83716Z" stroke="white" stroke-width="1.64444" stroke-linecap="round" stroke-linejoin="round"/>
</g>
<defs>
<clipPath id="clip0_345_4415">
<rect width="23.0222" height="23.0222" fill="white"/>
</clipPath>
</defs>
</svg>
