<svg width="24" height="24" viewBox="0 0 24 24" fill="none" xmlns="http://www.w3.org/2000/svg">
<g clip-path="url(#clip0_345_4420)">
<path d="M3.83716 6.71484H19.1853" stroke="white" stroke-width="1.64444" stroke-linecap="round" stroke-linejoin="round"/>
<path d="M9.59265 10.5518V16.3073" stroke="white" stroke-width="1.64444" stroke-linecap="round" stroke-linejoin="round"/>
<path d="M13.4296 10.5518V16.3073" stroke="white" stroke-width="1.64444" stroke-linecap="round" stroke-linejoin="round"/>
<path d="M4.79626 6.71484L5.75552 18.226C5.75552 18.7348 5.95765 19.2228 6.31744 19.5826C6.67724 19.9423 7.16522 20.1445 7.67404 20.1445H15.3481C15.8569 20.1445 16.3449 19.9423 16.7047 19.5826C17.0645 19.2228 17.2666 18.7348 17.2666 18.226L18.2259 6.71484" stroke="white" stroke-width="1.64444" stroke-linecap="round" stroke-linejoin="round"/>
<path d="M8.6333 6.71472V3.83694C8.6333 3.58253 8.73437 3.33854 8.91426 3.15865C9.09416 2.97875 9.33815 2.87769 9.59256 2.87769H13.4296C13.684 2.87769 13.928 2.97875 14.1079 3.15865C14.2878 3.33854 14.3889 3.58253 14.3889 3.83694V6.71472" stroke="white" stroke-width="1.64444" stroke-linecap="round" stroke-linejoin="round"/>
</g>
<defs>
<clipPath id="clip0_345_4420">
<rect width="23.0222" height="23.0222" fill="white"/>
</clipPath>
</defs>
</svg>
