<svg width="24" height="24" viewBox="0 0 24 24" fill="none" xmlns="http://www.w3.org/2000/svg">
<g clip-path="url(#clip0_345_4409)">
<path d="M18.226 8.35529L13.1102 4.37628C12.6613 4.02703 12.1087 3.8374 11.5399 3.8374C10.9711 3.8374 10.4186 4.02703 9.96961 4.37628L4.85292 8.35529C4.54543 8.59442 4.29664 8.90066 4.12557 9.25062C3.9545 9.60057 3.86566 9.985 3.86585 10.3745V17.2812C3.86585 17.79 4.06797 18.278 4.42777 18.6378C4.78756 18.9976 5.27554 19.1997 5.78436 19.1997H17.2955C17.8043 19.1997 18.2923 18.9976 18.6521 18.6378C19.0119 18.278 19.214 17.79 19.214 17.2812V10.3745C19.214 9.58506 18.8495 8.83972 18.226 8.35529Z" stroke="white" stroke-width="1.64444" stroke-linecap="round" stroke-linejoin="round"/>
<path d="M15.348 14.3889C13.2281 15.6676 9.79199 15.6676 7.67395 14.3889" stroke="white" stroke-width="1.64444" stroke-linecap="round" stroke-linejoin="round"/>
</g>
<defs>
<clipPath id="clip0_345_4409">
<rect width="23.0222" height="23.0222" fill="white"/>
</clipPath>
</defs>
</svg>
