<svg width="24" height="24" viewBox="0 0 24 24" fill="none" xmlns="http://www.w3.org/2000/svg">
<g clip-path="url(#clip0_345_4426)">
<path d="M2.87781 11.511C2.87781 12.6448 3.10112 13.7674 3.53498 14.8149C3.96885 15.8623 4.60477 16.814 5.40645 17.6157C6.20813 18.4174 7.15986 19.0533 8.20731 19.4872C9.25475 19.921 10.3774 20.1444 11.5111 20.1444C12.6449 20.1444 13.7675 19.921 14.815 19.4872C15.8624 19.0533 16.8141 18.4174 17.6158 17.6157C18.4175 16.814 19.0534 15.8623 19.4873 14.8149C19.9212 13.7674 20.1445 12.6448 20.1445 11.511C20.1445 10.3773 19.9212 9.25463 19.4873 8.20719C19.0534 7.15974 18.4175 6.20801 17.6158 5.40633C16.8141 4.60465 15.8624 3.96872 14.815 3.53486C13.7675 3.10099 12.6449 2.87769 11.5111 2.87769C10.3774 2.87769 9.25475 3.10099 8.20731 3.53486C7.15986 3.96872 6.20813 4.60465 5.40645 5.40633C4.60477 6.20801 3.96885 7.15974 3.53498 8.20719C3.10112 9.25463 2.87781 10.3773 2.87781 11.511Z" stroke="white" stroke-width="1.64444" stroke-linecap="round" stroke-linejoin="round"/>
<path d="M11.5111 16.3074V16.317" stroke="white" stroke-width="1.64444" stroke-linecap="round" stroke-linejoin="round"/>
<path d="M11.5112 12.95C11.4935 12.6386 11.5775 12.3299 11.7505 12.0704C11.9235 11.8109 12.1762 11.6146 12.4704 11.5111C12.831 11.3732 13.1546 11.1535 13.4158 10.8693C13.6771 10.5851 13.8688 10.2442 13.9758 9.87327C14.0829 9.50239 14.1024 9.11172 14.0328 8.73202C13.9632 8.35232 13.8065 7.99395 13.5748 7.68513C13.3432 7.37631 13.0431 7.12547 12.6981 6.95236C12.353 6.77924 11.9725 6.68858 11.5865 6.68751C11.2005 6.68644 10.8195 6.77499 10.4735 6.94619C10.1275 7.11738 9.82598 7.36655 9.59265 7.67408" stroke="white" stroke-width="1.64444" stroke-linecap="round" stroke-linejoin="round"/>
</g>
<defs>
<clipPath id="clip0_345_4426">
<rect width="23.0222" height="23.0222" fill="white"/>
</clipPath>
</defs>
</svg>
