<svg width="24" height="24" viewBox="0 0 24 24" fill="none" xmlns="http://www.w3.org/2000/svg">
<g clip-path="url(#clip0_345_4412)">
<path d="M7.67395 15.3481L9.59247 9.59259L15.348 7.67407L13.4295 13.4296L7.67395 15.3481Z" stroke="white" stroke-width="1.64444" stroke-linecap="round" stroke-linejoin="round"/>
<path d="M2.87781 11.511C2.87781 12.6448 3.10112 13.7674 3.53498 14.8149C3.96885 15.8623 4.60477 16.814 5.40645 17.6157C6.20813 18.4174 7.15986 19.0533 8.20731 19.4872C9.25475 19.921 10.3774 20.1444 11.5111 20.1444C12.6449 20.1444 13.7675 19.921 14.815 19.4872C15.8624 19.0533 16.8141 18.4174 17.6158 17.6157C18.4175 16.814 19.0534 15.8623 19.4873 14.8149C19.9212 13.7674 20.1445 12.6448 20.1445 11.511C20.1445 10.3773 19.9212 9.25463 19.4873 8.20719C19.0534 7.15974 18.4175 6.20801 17.6158 5.40633C16.8141 4.60465 15.8624 3.96872 14.815 3.53486C13.7675 3.10099 12.6449 2.87769 11.5111 2.87769C10.3774 2.87769 9.25475 3.10099 8.20731 3.53486C7.15986 3.96872 6.20813 4.60465 5.40645 5.40633C4.60477 6.20801 3.96885 7.15974 3.53498 8.20719C3.10112 9.25463 2.87781 10.3773 2.87781 11.511Z" stroke="white" stroke-width="1.64444" stroke-linecap="round" stroke-linejoin="round"/>
</g>
<defs>
<clipPath id="clip0_345_4412">
<rect width="23.0222" height="23.0222" fill="white"/>
</clipPath>
</defs>
</svg>
