<svg width="80" height="80" viewBox="0 0 80 80" fill="none" xmlns="http://www.w3.org/2000/svg">
<rect width="80" height="80" rx="40" fill="#292929"/>
<rect x="0.5" y="0.5" width="79" height="79" rx="39.5" stroke="white" stroke-opacity="0.15"/>
<path d="M28.5 24.6667V55.3334C28.4999 55.6744 28.5908 56.0093 28.7633 56.3035C28.9358 56.5977 29.1837 56.8405 29.4814 57.0069C29.7791 57.1733 30.1157 57.2573 30.4567 57.2502C30.7977 57.243 31.1305 57.1451 31.421 56.9664L56.3377 41.6331C56.6167 41.4616 56.8472 41.2214 57.0071 40.9356C57.1669 40.6497 57.2509 40.3276 57.2509 40.0001C57.2509 39.6725 57.1669 39.3504 57.0071 39.0646C56.8472 38.7787 56.6167 38.5385 56.3377 38.3671L31.421 23.0337C31.1305 22.855 30.7977 22.7571 30.4567 22.7499C30.1157 22.7428 29.7791 22.8268 29.4814 22.9932C29.1837 23.1596 28.9358 23.4024 28.7633 23.6966C28.5908 23.9908 28.4999 24.3257 28.5 24.6667Z" fill="#AE89FF"/>
</svg>
