<svg width="33" height="33" viewBox="0 0 33 33" fill="none" xmlns="http://www.w3.org/2000/svg">
<g clip-path="url(#clip0_345_4447)">
<path d="M21.9259 24.6666C22.6528 24.6666 23.3499 24.9554 23.8639 25.4694C24.3779 25.9834 24.6666 26.6805 24.6666 27.4074C24.6666 26.6805 24.9554 25.9834 25.4694 25.4694C25.9834 24.9554 26.6805 24.6666 27.4074 24.6666C26.6805 24.6666 25.9834 24.3779 25.4694 23.8639C24.9554 23.3499 24.6666 22.6528 24.6666 21.9259C24.6666 22.6528 24.3779 23.3499 23.8639 23.8639C23.3499 24.3779 22.6528 24.6666 21.9259 24.6666ZM21.9259 8.22219C22.6528 8.22219 23.3499 8.51094 23.8639 9.02493C24.3779 9.53892 24.6666 10.236 24.6666 10.9629C24.6666 10.236 24.9554 9.53892 25.4694 9.02493C25.9834 8.51094 26.6805 8.22219 27.4074 8.22219C26.6805 8.22219 25.9834 7.93343 25.4694 7.41944C24.9554 6.90545 24.6666 6.20833 24.6666 5.48145C24.6666 6.20833 24.3779 6.90545 23.8639 7.41944C23.3499 7.93343 22.6528 8.22219 21.9259 8.22219ZM12.3333 24.6666C12.3333 22.486 13.1996 20.3946 14.7415 18.8526C16.2835 17.3107 18.3749 16.4444 20.5555 16.4444C18.3749 16.4444 16.2835 15.5781 14.7415 14.0362C13.1996 12.4942 12.3333 10.4029 12.3333 8.22219C12.3333 10.4029 11.467 12.4942 9.92507 14.0362C8.38311 15.5781 6.29175 16.4444 4.11108 16.4444C6.29175 16.4444 8.38311 17.3107 9.92507 18.8526C11.467 20.3946 12.3333 22.486 12.3333 24.6666Z" fill="black" stroke="black" stroke-width="1.64444" stroke-linecap="round" stroke-linejoin="round"/>
</g>
<defs>
<clipPath id="clip0_345_4447">
<rect width="32.8889" height="32.8889" fill="white"/>
</clipPath>
</defs>
</svg>
