<svg width="20" height="20" viewBox="0 0 20 20" fill="none" xmlns="http://www.w3.org/2000/svg">
<g clip-path="url(#clip0_345_4396)">
<path d="M2.46667 8.22211C2.46667 8.97794 2.61555 9.72637 2.90479 10.4247C3.19403 11.123 3.61799 11.7574 4.15244 12.2919C4.68689 12.8264 5.32138 13.2503 6.01967 13.5395C6.71797 13.8288 7.4664 13.9777 8.22223 13.9777C8.97806 13.9777 9.72649 13.8288 10.4248 13.5395C11.1231 13.2503 11.7576 12.8264 12.292 12.2919C12.8265 11.7574 13.2504 11.123 13.5397 10.4247C13.8289 9.72637 13.9778 8.97794 13.9778 8.22211C13.9778 7.46628 13.8289 6.71785 13.5397 6.01955C13.2504 5.32126 12.8265 4.68677 12.292 4.15232C11.7576 3.61786 11.1231 3.19391 10.4248 2.90467C9.72649 2.61542 8.97806 2.46655 8.22223 2.46655C7.4664 2.46655 6.71797 2.61542 6.01967 2.90467C5.32138 3.19391 4.68689 3.61786 4.15244 4.15232C3.61799 4.68677 3.19403 5.32126 2.90479 6.01955C2.61555 6.71785 2.46667 7.46628 2.46667 8.22211Z" stroke="white" stroke-width="1.64444" stroke-linecap="round" stroke-linejoin="round"/>
<path d="M17.2667 17.2666L12.3333 12.3333" stroke="white" stroke-width="1.64444" stroke-linecap="round" stroke-linejoin="round"/>
</g>
<defs>
<clipPath id="clip0_345_4396">
<rect width="19.7333" height="19.7333" fill="white"/>
</clipPath>
</defs>
</svg>
