<svg width="24" height="24" viewBox="0 0 24 24" fill="none" xmlns="http://www.w3.org/2000/svg">
<g clip-path="url(#clip0_345_4401)">
<path d="M9.90435 4.14103C10.313 2.45657 12.7092 2.45657 13.1179 4.14103C13.1792 4.39408 13.2994 4.62908 13.4687 4.8269C13.638 5.02472 13.8516 5.17977 14.0921 5.27943C14.3327 5.37909 14.5934 5.42054 14.853 5.40041C15.1126 5.38028 15.3637 5.29915 15.586 5.1636C17.0662 4.2619 18.7612 5.95595 17.8595 7.43704C17.7241 7.65926 17.6431 7.91028 17.623 8.1697C17.603 8.42912 17.6444 8.68962 17.7439 8.93002C17.8435 9.17042 17.9983 9.38394 18.1959 9.55322C18.3935 9.72251 18.6283 9.84278 18.8811 9.90426C20.5656 10.3129 20.5656 12.7091 18.8811 13.1178C18.628 13.1791 18.393 13.2993 18.1952 13.4686C17.9974 13.6379 17.8424 13.8515 17.7427 14.0921C17.643 14.3326 17.6016 14.5933 17.6217 14.8529C17.6418 15.1125 17.723 15.3636 17.8585 15.586C18.7602 17.0661 17.0662 18.7611 15.5851 17.8594C15.3629 17.724 15.1118 17.643 14.8524 17.623C14.593 17.6029 14.3325 17.6443 14.0921 17.7438C13.8517 17.8434 13.6382 17.9982 13.4689 18.1958C13.2996 18.3934 13.1794 18.6282 13.1179 18.881C12.7092 20.5655 10.313 20.5655 9.90435 18.881C9.84304 18.628 9.72284 18.393 9.55354 18.1951C9.38424 17.9973 9.17062 17.8423 8.93008 17.7426C8.68953 17.643 8.42885 17.6015 8.16926 17.6216C7.90966 17.6418 7.65849 17.7229 7.43618 17.8584C5.95604 18.7601 4.26103 17.0661 5.16273 15.585C5.29809 15.3628 5.37909 15.1118 5.39917 14.8523C5.41925 14.5929 5.37784 14.3324 5.2783 14.092C5.17875 13.8516 5.02389 13.6381 4.82629 13.4688C4.6287 13.2995 4.39395 13.1793 4.14112 13.1178C2.45666 12.7091 2.45666 10.3129 4.14112 9.90426C4.39417 9.84295 4.62917 9.72275 4.82699 9.55345C5.02481 9.38415 5.17986 9.17053 5.27952 8.92999C5.37918 8.68944 5.42063 8.42876 5.4005 8.16917C5.38038 7.90957 5.29924 7.6584 5.16369 7.43609C4.26199 5.95595 5.95604 4.26094 7.43714 5.16264C8.3964 5.74587 9.6396 5.22979 9.90435 4.14103Z" stroke="white" stroke-width="1.64444" stroke-linecap="round" stroke-linejoin="round"/>
<path d="M8.63333 11.5111C8.63333 12.2743 8.93652 13.0063 9.47621 13.546C10.0159 14.0857 10.7479 14.3889 11.5111 14.3889C12.2743 14.3889 13.0063 14.0857 13.546 13.546C14.0857 13.0063 14.3889 12.2743 14.3889 11.5111C14.3889 10.7478 14.0857 10.0159 13.546 9.47618C13.0063 8.93649 12.2743 8.6333 11.5111 8.6333C10.7479 8.6333 10.0159 8.93649 9.47621 9.47618C8.93652 10.0159 8.63333 10.7478 8.63333 11.5111Z" stroke="white" stroke-width="1.64444" stroke-linecap="round" stroke-linejoin="round"/>
</g>
<defs>
<clipPath id="clip0_345_4401">
<rect width="23.0222" height="23.0222" fill="white"/>
</clipPath>
</defs>
</svg>
